<?xml version="1.0" encoding="utf-8"?>
<!-- Generator: Adobe Illustrator 23.0.1, SVG Export Plug-In . SVG Version: 6.00 Build 0)  -->
<svg version="1.1" id="Layer_1" xmlns="http://www.w3.org/2000/svg" xmlns:xlink="http://www.w3.org/1999/xlink" x="0px" y="0px"
	 viewBox="0 0 1000 1000" style="enable-background:new 0 0 1000 1000;" xml:space="preserve">
<style type="text/css">
	.st0{fill:#54575B;}
	.st1{fill:#F36D21;}
</style>
<g>
	<path id="path2" class="st0" d="M112.8,488.9c4.2-2.3,6.7-5,7.1-8.2c0.7-2.9-1.9-2.6-2.5-2c-2.4,1.9-5.5,4.8-8.4,6.8
		c-1.4,0.1-2.7,0.3-4.1,0.5c-0.3-0.1-0.8-0.7-0.5-0.9c2.7-1.7,5.6-3.4,7.5-5.7c1.2-1.4,0.7-2.7-1.7-3c-2.7-0.4-5.8,0.7-8.3,2.9
		c-4.2,3.6-6.1,11.4-6.6,16.4c-0.9,0.8-1.2,0.8-2,1.2c-1.5-5.5-0.7-11.3,2.2-16.2c0.4-1,0.1-2.7-1.4-3.1c-0.9-0.3-1.3-0.1-1.7,0.8
		c-2,5.9-5.6,8.4-10.6,12.1c-0.5,0.4-5,2.9-6.1,3.6c-4-1.2-8.4-8.6-12.2-14.1c-0.7-1.1-2-1.6-3.3-1.4c-8.2,0.9-14.3,0.3-18.6-6.1
		c-2-2.7-2.9-3.1-5.3-0.8c-2.7,2.9-5.5,5.1-8.2,7.4c-1.4,0.9-2.5,0.6-3.1-1.2c-1.9-5.5-2.8-11.4-2.7-17.2c0-2.5,0.3-6.1,0.3-8.5
		c-1.5-1.4-3.3-2.6-5.2-3.5c-6.9-3.3-14.9-10.9-15-13.2c0-0.5,0.4-1.9,2.3-3c10-4.4,17.8-0.7,20.8-1.2c2.5-0.2,3.3-2,2.9-5.7
		c-1-6.6,1.4-13.3,6.4-17.8c3.4-3.6,3.1-7.6,2.3-12.1c-0.4-2-0.9-2.6-2.9-2.4c-5.5,1.2-5.2,1.4-6.2,6.1c-0.6,3.1-1.7,6.2-3.4,8.7
		c-2.2,3.5-5.1,6.4-7.7,9.5c-0.9,1.2-1.9,1.2-3.2,0.4c-7.7-4.7-10.7-14.4-7-22.6c0.9-2.4,2.2-4.9,3.6-6.2l0.7,0.3c0,0.4,0,1-0.1,1.4
		l-1.6,5.1c-2,5.9-1.7,11.5,2.3,16.6c1.3,1.6,2.5,2.1,3.1,1.4c2.5-2.5,5.1-4.9,7.3-7.6c2.7-3.1,3.5-6.8,2.7-10.7
		c-0.2-1.5-0.5-3-0.8-4.4c-0.4-2.1-1.3-2-2.3-0.7c-2.5,2.5-3.6,4.4-4.8,9c-0.2,0.6-0.6,1.2-1.2,1.6c-0.4-0.7-0.6-1.6-0.5-2.4
		c0.7-4.1,1.6-7.7,4.2-10.4c1.7-1.8,1.3-2.9-0.3-3.3c-5.9-1.6-10.9-3.3-15.4-8.7c-0.7-0.8-1.2-1.9-1.2-3c0-1.2,0.6-2,1.9-3
		c5.2-3.6,10.4-7.2,15.5-8.3c2-0.4,3.1-0.5,4.2-0.7c-2.3-7.2-4.8-15.9-6.1-24c0-1.6,1.2-6.1,1.8-7.4c1.2-0.1,2.5-0.1,4.6,0.6
		c2.4,0.8,4.6,2.3,6.8,3.7c2.1,1.2,2.7,1.2,4.1-0.7c2.4-3.5,5.1-6.6,8.7-8.4c1.2-0.6,2-1,2.9-1c1.2,0,2,0.7,3.2,2.5
		c2,3.2,3.7,6.9,5.5,10.2c2,3.5,4.2,3.7,7.4,1.4c3.5-2.3,6.6-4.6,9.8-7.2c3-2.3,3.8-2.3,7.1-0.1c2.9,2,6.1,5.8,7.7,9.1
		c0.3,0.6,7.2-3.1,7.4-4.7c0.3-2.9,1.1-5.1,2.2-7.4c1.4-2.9,3.5-3.8,5.3-3.8c1.7,0,4.9,1.9,7.3,3.4l5.2,3c2.7,1.5,2.9,1.5,4.5-1
		c1.8-2.9,3.4-3.4,7.2-3.4c7.5,0,14.3,1.9,19.5,8.1c1,1.2,1.8,1.4,3,0.2c2.1-2.2,4.1-3,8.1-3h7c1.6,0,2.6,0.1,4-1.9
		c1.9-2.7,4.1-5.4,7.2-5.4c4.9,0,11.3,6.9,14.6,12.8l-1.7,0.9c-3.6-3.6-8-6.3-12.8-8.1c-3-1.2-4.3,0-3.9,3.1
		c0.4,3.6,1.4,7.3,2.3,10.9c1,3.3,4,6.3,7.2,7.7l0.2,1.2c-0.5-0.1-1.2-0.3-2-0.4c-2.1-0.4-4.3-0.3-6.4,0.2c-4.1,1-7.9,2.8-11.5,4.4
		c-1.8,0.9-1.8,1.4-0.3,2.9c2,1.9,4,4.1,6.3,5.8c6.6,5,13.2,4,20.5,1.2l3.4-1.2c3.1-0.5,6.4,0.7,8.9,3l7.4,6.6
		c2.3,2.3,2.9,4.2,1.4,7c-2.4,4.7-5.1,9.5-7.7,14.1c-0.4,0.7-1,1.4-1.7,1.8c-0.9-0.7-1.7-2.4-0.8-3.9c3.3-4.1,5.3-9.8,6-13.7
		c0.7-3.8-1.4-5.6-5-4.6l-3.1,1.2c-1.3,0.5-1.8,0-2-1.4c-0.5-1.2-1.1-1.9-1.5-3.1c-0.8-2-2-2.7-3.8-1.4c-3.1,1.9-5.3,3.8-7.1,6.8
		c-2.6,4.9-3.6,10.4-2.9,15.9c0.1,0.7,0.6,1.2,1,1.6c0.6-0.3,1.1-0.8,1.4-1.4c1-2.4,1.6-4.8,2-7.4c0.2-1.4,0.4-4,0.9-5.3
		c0.3-0.7,1.4-0.4,2-0.2c1.6,0.6,2.2,1.4,2.4,2.5c-3.1,3.9-5,9.7-7,14.9c-0.3,0.7-1.6,1.6-2.5,1.6c-1-0.1-2.3-0.9-2.5-1.7
		c-1.2-3.3-3.4-6.5-4.3-9.8c-2.3-11.1-2.9-11.7-3.4-12.4c-4.3-7.2-9.9-13.6-16.5-18.9c-0.5-0.5-0.8-1.2-1.2-1.6
		c0.6-0.3,1.1-0.8,1.7-1c2.1-0.9,4.3-1.7,6.5-2.5c2.7-1,4.6-2.7,5.9-5.3c0.8-1.4,1.8-2.9,2.6-4.3c1.2-2,1-3.1-0.5-4.9
		c-2.7-3.1-6.8-4.4-10.8-3.3c-4.2,1-6.8,4-8.1,8c-0.5,1.4-0.7,2.9-0.7,4.4c0,2.3,0.7,2.7,2.5,1.6c3.1-2.5,6.5-4.6,9.8-6.8
		c-1.5,3.5-3.7,6.2-6.7,8.2c-2,1.3-4.1,2.4-6.1,3.6c-1.7,1.2-2.3,0.7-2.9-1.4c-0.5-2.2-0.3-4.4-0.3-6.6c0.4-6.5-3.6-12.4-9.7-14.5
		l-5.4-2.3c-1.5,1.1-2.2,2.9-2,4.7c0.4,5.9,1.3,10.2,2.3,15.3c1,2,3.2,2.9,5.5,3.3c1.4-0.7,2.5-2.6,0.6-5.6l-2.7-5.3
		c-0.3-0.7-0.6-1.3-0.8-2c-0.1-0.3-0.2-0.8,0-1.1c0.3,0.1,0.7,0.1,1.4,0.8c3.4,3.7,6.1,7.9,7.9,13c0.7,2,0.1,2.9-1.9,3.1
		c-4.5,0.4-9.1,0.7-13.5,1.6c-7.2,1.5-9.6,4.1-12.2,8.9c-1.1,2-1.6,3.3-1.7,4.6c2.5,0.2,5.4,0.1,9.5-0.7c3.5-0.4,6.8-1.5,9.8-3.2
		c1.9-2.3,3.4-4.5,6.3-6.6c0.8-0.6,2.7-0.8,3.5-0.4c8.3,3.7,15,10.2,18.8,18.4c0.3,0.8,1.1,1.6,1.5,2.3c0.8,1,0.5,1.3-0.7,1.2
		c-1.6-0.5-3.4-0.9-4.9-1.5c-0.6-0.3-1.1-1.2-1.4-1.9l-1.5-4.2c-0.8-1.7-1.2-1.7-2.9-1.1c-0.9,0.3-1.8,0.7-3.3,1.4
		c-1.2,0.5-1.8,0.7-2.1-0.7c-0.4-2-1-4.1-1.4-5.9c-0.8-2.3-1.7-2.7-3.9-1.6c-4.1,2.1-7.1,5.3-9.2,9.4c-1.9,4-2.7,6.7-0.9,17.2
		c0.4,2,2,4.6,4,5.2l17.8,5.5c0.9,0,1.4,1,0.3,1.7c-2.2,1.5-4.6,2.8-6.8,4.2c-1.2,0.7-1.8,0.3-2.3-0.7c-1.5-3.1-4.1-5.4-7.3-6.7
		c-1.2-0.5-1.8-0.3-2.3,0.9c-0.8,1.9-1.7,4.7-2.5,6.7c-0.4,1-0.9,1.4-2,0.7c-5.1-4.2-10.4-4.4-16.6-3.6c-3.1,0.4-4.5,1.2-3.8,4.3
		c1.7,8.5,9.2,12.5,15.5,15.2c0.9-0.3,1.7-0.9,2.2-1.7c1-1.4,0.7-2.7-0.7-4c-2.5-2.1-7.6-4.6-10.2-6.9c-0.4-1.4,2.5-2.6,4.1-1.6
		c4.6,2.1,8.2,5.9,11.9,9.6c1.9,1.8,2.8,1.6,3.4-1c0.7-2,1.4-5.2,2-7.5c0.3-1.2,1.1-0.8,1.4-0.1c0.5,1.8,1,4.1,1,6.1
		c0,2.2-0.8,4.1-1.4,6.1c-0.4,2-2,3.1-3.7,2.7c-7.9-0.8-13.8,2.9-18.6,3.1c-1.1,0-3.4-0.7-4.6-1.2c-1.7-1.4,0.8-1.5,1.4-1.5
		c2,0,5.1,0,6.8-0.9c-0.5-0.7-1.4-1.4-2.1-2c-4.4-3.6-9.3,0.2-13,2.1c-2.1,1.2-2.3,1.4-1.4,3.7c1.4,3.4,3.8,4.7,7.2,4.7
		c1.9,0,3.8,0.3,5.7,0.2c0.9,0,1.9-0.3,2.7-0.7c2.5-1,4.8-2.2,7.1-3.2c2.9-0.4,2.8,1,1.5,2.5l-5.8,3.6c-0.6,0.3-1.3,0.5-1.7,1
		c-0.8,0.6-1.8,1.6-1.7,2c0.4,0.8,1.2,1.6,2.2,1.9c2.7,0.8,5.5,1.2,8.1,1.8c4.2,0.8,6-0.3,7.2-4.5c0.6-2.3,1.4-4.5,2.5-6.6
		c0.7-1.4,1.5-1.5,2.3-0.1c2.9,5.3,5.9,10.5,8.9,15.7c0.5,1.2,0,1.7-1.1,1.6c-6.6-0.7-13.2-1.4-19.8-2.5c-2.3-0.3-4.4-1.8-6.7-2.7
		c-3.4-1.6-6.8-3-10.7-2.9c-3.3,0.1-5.3,2-4.1,5.3c1.5,4.6,3.2,9.3,5.1,13.9c1.3,3.1,4.4,4.3,7.7,4.6c1.6,0.2,1-0.9,0.6-1.6
		l-5.5-11.8c-0.7-2-0.1-2.3,1-0.6c3,4.5,6.1,8.8,8.9,13.4c1.6,2.9-0.4,3.7-2.5,3.8c-6.9-0.7-13.2-3.1-19.8-5.6
		c-0.7-0.3-1.6-1.7-1.4-2.3c1.2-1.2,2.7,0,4.1,0c1.6,0.3,2.3-0.4,1.6-1.6c-0.7-1.4-1.9-2.5-3.3-3.1c-3.1-1.6-6.4-2.8-9.8-3.6
		c-2-0.4-3.4,0.5-3,2.3c0.5,2.4,1.6,4.5,2.9,7c0.3,0.7,0.3,1.6,0.1,2.3c-1.2-0.1-2.7,0.3-7.9-1.8c-5.1-2.1-5.2-3.6-5.2-9.8
		c0-1.4,0-4,0.3-5.3c0.5-1.7,0.7-2,2.3-1.8c5.3,1.1,10.7,2.5,16,5.1c1.6,0.7,3.1,2,4.7,2.7c1.4,0.5,2,0,1.8-1.4
		c-0.1-1.8-1.3-3.4-3-4.1c-5.6-2.4-11.2-5.1-16.8-7.3c-1.4-0.5-1.8-1.2-1.1-2.6c2.3-3.7,3.4-8,2.5-12.6c0-0.3,0.4-0.8,0.8-1.2
		c1.4,0.4,2.5,1.7,2.5,3.1c0.4,4,3.1,6.7,5.7,9.4c5.3,5.5,5.3,5.5,12.6,3.7c1-0.1,1.6-0.8,2.5-1.4c-0.7-0.5-1.4-1.5-2.3-1.9
		c-1.4-0.7-2.9-1.1-4.4-1.7c-4.9-1.8-6.4-5.3-4.7-10.5c1.7-4.7,3.3-9.5,4.6-14.3c0.5-2.3,0.7-4.6,0.8-7c0-1.4,1-1.4,1.8-1.5
		l10.7-0.7c2.7-0.2,5.8-3.4,6.9-5.3l3.6-5.8c-2.1-1.6-4.9-2-7.3-1.1c0.8-2.7,1.9-5.2,1.9-7.7c0-1.6-0.4-3.6-1.1-5.3
		c-0.7-1.6-1.8-1.9-3.2-0.9c-2.6,2.2-4.8,4.8-5.6,8.3c-0.8,3.6-2.3,10-1.6,11.2c1.6-1.2,3.8-2.9,5.3-3.3c0.7-0.2,1.8-0.1,2.5,0.4
		c-2.4,2.3-5.3,4.1-7.9,5.5c-2,0.9-2.7-0.3-2.4-2.2c2.3-8.9,0.9-9.6,0.1-13.9c-1.4-5.4-3.6-10.6-6.6-15.3c-1-1.2-2.5-0.8-4.5,1.6
		c-3.3,4-4.1,7.3-5.8,14.1l-0.4,1.4l-2.3,2l-1-1.2c0.9-3.1,1.8-5,1.8-7.5c0-3.1-1.4-5.3-3.4-7c-2.5,1.6-4.8,3.7-5.5,4.8
		c-1.6,2.4-1.5,5.5,0.1,7.8c2.6,4.6,2.2,9.2,1.4,14.5l-0.7-0.2c-0.3-3.5-1-7-1.9-10.4c-0.5-2.2-2-4-3.1-5.9
		c-1.2-1.7-2.2-5.4-1.2-6.9c1.4-2.4,5.7-3.6,7.3-5.8c1.7-2.6,0.9-3.7,3.1-6c1.3-1.6,4.1-4.8,6.1-3.7c6.1,3.1,12.7,3.8,19.6,2.9
		c2.9-0.4,3.6-0.3,4.4-3.3c0.7-2.5,1-0.8,3.5-1.6c4.2-1.4,6.4-5.1,6.4-9.6c0-2.5,0.1-5-0.1-7.5c-0.2-2.2-1-4.3-1.7-6.3
		c-0.5-1.3-1.4-1-2-0.1c-1.7,2.3-4.6,6.7-6.1,9.2c-0.9,1.4-1.6,2.9-2.4,4.4c-0.4,1.2-1,1.4-2,0.3c-1.1-1.2-2.3-2.2-3.6-3.1
		c-2.3-1.4-2.5-5.9-1.6-8.8c1,0.5,1.6,1.6,2.3,3.1c0.8,1.9,1.2,4.1,2.7,4.8c2,1,4-3.1,3.7-5.9c0-0.3-0.2-1.4-0.7-2
		c-2.2-3.9-7.2-7-10.2-7c-3.6,0-5.8,4.4-4.4,8.5c0.4,1.1,0.8,1.9,1.4,2.9c-8.4,4.4-10.7,7.2-14,11.1c-0.4,0.5-0.8,1.8-0.4,2.5
		c1.6,3,1,4-2.3,5.8c-1.4,0.8-3.4,1.6-4.9,2c-0.2,0.1-0.6-0.2-1-0.3c0.1-0.3,0.2-0.6,0.4-0.8c2-4.6,4.3-8.9,6.2-13.6
		c2-5-2.5-9.6-6.5-11.2c-2.7-1-4.8-0.4-6.6,2c-4.4,5.3-5.4,14,0.8,22.2c1,1.4,0.7,1.9-0.9,2c-3.6,0.3-7.1,0.7-10.8,0.9
		c-4.3,0.2-8.4,2.3-10.9,5.8c-0.8,1.2-1.9,1.5-3.1,0.7c-2.8-1.7-5.2-1.3-8.1,0.4c-4.8,2.5-10.4,4.5-13.5,4.5c-0.5,0-1.1-0.4-1.5-0.8
		c0.3-0.4,0.7-1,1.7-1.4c2.9-0.7,5.3-1.4,7.9-2.2c0.5-0.5,0.7-1.6,1-2.1c-0.5-0.7-1.5-1.6-2.3-1.6c-2.5-0.3-5-0.3-7.4,0
		c-6.5,0.6-11.3,3.6-15.4,7.4c-1.9,1.9-2,3.9,0,5.5c4.8,3.4,9.9,6.8,16.4,5.1c4.5-1.4,7.3-4.8,10.2-8.1c2.5-2.6,5.5-5.7,8.3-2.4
		c4.2,4.8,5,9.8,11.8,8.9c2.6-0.3,3.7-1.2,4.4-3.6l0.5-2.9c0.2-1.9-0.8-2.9-2.7-2.1c-1.2,0.4-2.3,1.1-3.6,1.4
		c-0.7,0.2-1.4-0.1-2.3-0.3c0.1-0.7,0.2-1.6,0.7-2c1.2-0.8,2.7-1.5,4.1-2.1c5.1-1.4,10-2.4,15-3.4c0.5-0.1,1.1-0.1,1.6,0l-0.5,1.4
		c-1.8,4.2-4.3,5.5-7.6,6.4c-0.4,0.4-1.2,1.4-1.8,3.3c-2.1,6.8-0.9,13.9,3.7,18.9c1.6,1.8,3.7,3.3,5.8,4.6c3.6,2,4.5,5.5,5.8,9.1
		c0.8,2.3,1.7,4.5,2.7,6.8c-2.9,2-5.3,4.4-6.9,7.4c-0.7,0.7-1.2,0.4-1.6-0.4l-2-4.8c-1.8-4.3-4.8-7-9.6-7.4
		c-1.7-0.1-3.4-0.4-5.1-0.6c-2-0.2-3.3,0.7-4,2.9c-2.7,8.2-0.1,15.3,7.7,19.7c-6.3,1.6-11.5,4.1-14.7,8.5c0.3,1.2,2.3,2.9,4.7,3.9
		c6.1,2.5,12.4,2.3,18.2,0.3c3.4-1.2,3.6-0.4,4.2,2l1.7,7.6c0.4,1.8-0.6,2.9-2.3,2.3c-9.4-2.7-20.5-7.2-28.5-12.6
		c-3.4-1.5-6.9-2.6-10.6-3.1c-1.2,0.7-2.3,1.6-3.3,1.4c-3.5-0.9-6.9-2.1-10.1-3.6c-1.6-1-1.7-1.4,0.3-1.7c3.1,0,8.9,1.4,11.8,1.4
		c2.9-0.9,2.9-1.4,1.1-2.6c-6.9-5.5-14.7-4.2-22.4-2.9c-2.7,0.5-2.9,1.8-1.4,4c10,11.3,17.3,11.2,29.5,9.8
		c7.9,5.1,15.8,9.6,25.1,12.5l0.2,1.4c-6.6,0.4-12.8,1.5-18.9,2.7c-3,0.6-3.6,2.5-2,5.2c2.5,4,6.4,5.8,10.8,6.9
		c3.2,1,6.4,0.7,9.6-0.6c3.7-1.7,6.1-4.8,9.6-6.7c2-1.1,5.5,0.1,7.5,0.7c3.1,1,6.1,2.4,9.4,2.9c12.7,1.7,26.2,2.9,38,1.9
		c-1.4,2.7-2.5,5.3-3.4,8c-0.6,1.6-0.1,2,1.6,1.9c2.5-0.1,4.9-1.5,5.9-3.4c0.2-1.9,0.2-3.6,0.6-5.5c0.2-1,0.5-2.5,1.2-2.6
		c0.5-0.1,3.4,0.4,3.1,1.2c-1,3-1.9,5.3-3.1,8.2c1.1,0.2,2.3,0.4,3.4,0.4c4.8,0,5.5-0.7,5.3-5.5c-0.1-1.4-0.3-2.7-0.6-4
		c-0.6-3.6,0.1-6,3.2-7.6c3-1.5,6.1-1,9.2-0.7c9.5,1.6,18.4,5.6,25.9,11.7c3.8,3,0.5,7.2,0.5,12.8c0,3.6-0.7,7.2-0.6,9.1
		c0.1,2.9,1.4,4.5,2.5,5.3c3.3,2.5,6.9,5.1,10.4,7.3c3.6,2.3,5.3,3.8,9.6,5.2c1,0.3,2.2,0.3,3,0.2c0.2-1.5,0.2-2.9-0.2-4.4
		c-2-1.4-4.9-2-8.2-3.1c-0.6-0.2-1.2-1-1.6-1.8c0.7-0.6,1.5-1.1,2.4-1.4l5.3-1.2c0.4-0.1,1.1-0.7,1.4-1.2c-0.3-0.5-0.7-1.1-1.1-1.2
		c-2.2-0.7-5.1-1.2-6.9-1.6c-0.7-0.2-1-0.8-1.6-1.4c0.8-0.6,1.6-1.1,2.6-1.4l5.5-0.7c0.6-0.1,1.1-0.5,1.4-0.9
		c-0.2-0.5-0.5-1.2-0.9-1.4c-1.2-0.5-6.8-2.6-7.4-3.2c-0.5-0.5-0.6-1.2-0.8-2c0.8-0.3,1.8-0.7,2.6-0.5l4.6,0.1
		c0.6,0,1.4-0.4,1.8-0.9c-0.3-0.6-0.7-1.1-1.2-1.4c-2.2-1.4-3-2.3-5.5-3.4c-1.2-0.7-1.7-1.4-1.9-2.8c0.8-0.2,2-0.3,3.1-0.1
		c1.6,0.4,2.5,1,4.3,1.2c0.5,0.1,1.4-0.1,1.9-0.2c0-0.5-0.1-1-0.5-1.4c-0.7-0.7-1.6-1-2.4-1.6c-1.2-0.8-3.3-2.9-4.6-3.9
		c-0.4-0.3-0.2-1.4-0.3-1.7l1.4,0.1c1.6,0.3,4.1,1,5.5,1.2c2.5,0.5,2.1,0.1,1.1-1.6c-1.5-1.4-3.1-2.3-4.5-3.8
		c-0.4-0.5-0.3-1.4-0.2-2.2c2.3,0.1,4.7,1.2,6.8,1.2c0.2-0.4,0.3-0.7,0.3-1.2c-0.5-1.4-1.1-2.8-1.7-4.1c-0.6-1.6,0.2-2.2,1.4-1.7
		c1.6,0.7,4.2,2,6,2.5c0.7,0.2,1.6,0,2.5-0.3c-0.8-1.6-1.8-2.9-2.9-4.6c-0.2-0.4,0-1,0.3-1.5c2.8,0.8,5.7,2.7,8.2,3.4
		c1.2,0.5,1.9,0,2.2-0.5c0.2-0.7-1.8-2.7-1.7-3.6c0.1-0.5,0.2-0.7,0.5-1l4.8,1.5c3.5,0.9,5.5,1.2,6,0.4c0.7-0.2-0.1-1.8-1.1-3.8
		c2.7-0.2,3.1,1.1,7.9,2c1.8,0.5,27.5-3.1,37.8-6.4c4.1-1.4,8.9-3.4,12.7-5.2l1.2,0.3c2.9,7.5,9.2,9.8,15.5,10.5
		c1.8,0.2,3.8,0.3,5.8,0.4c1.8,0,2.3-0.5,1.7-2.3c-1.5-6.2-4.8-11.8-9.5-16.1l-4.1-2.5c-1.8-1.8-1.6-4,0.3-5.5
		c3.3-2.2,7.6-4.3,10.9-6.4c4.8-3.1,6.4-7.8,6.1-12.8c0-1.3-0.7-2.6-1.8-3.3c-1,0.3-1.8,0.9-2.5,1.7c-1.3,2.7-2.6,5-3.8,7.4
		c-0.9,0.5-1.8,0.7-2.7,1c-0.2-0.8-0.7-1.6-0.5-2.5c1.4-4.2,5.2-7.6,7.6-10.4c1-1.7-0.5-2.4-1.2-2.3c-2.7,0.6-5.7,1.6-7.8,4
		c-5.2,6.5-8.9,14.2-10.8,22.3c-0.5,2.1-1.4,2.9-2,4.8c-0.9,3-0.8,3.7,1.8,5.5c3.8,2.5,8.7,4.7,12.2,7.2c1.4,1.6,0.7,2.2-0.8,2.1
		c-3.9,0-7.6-1.7-10.2-4.6c-1.4-1.5-2.5-2.5-4.1-2.7c-3.7,1-8.8,2.5-12.6,3c-2.2,0.4-3.9,1.3-5.1,3.3c-0.8,1.7-2.3,2-4.1,1.4
		c-2.7-0.8-5.5-1.7-8.2-2.3c-4.6-0.7-9.2-0.4-13.7,1c-1.8,0.3-2.3-0.1-1.7-1.9c0.5-2.3,1.2-4.4,1.6-6.6c0.1-1,0.2-2.4-0.7-2.9
		c-0.9,0.4-2.2,0.6-2.6,1.2c-1.4,2.1-2.5,4.4-3.9,6.7c-0.9,1.8-1.2,1.8-3.1,1c-2.8-1.2-5.4-2.8-7.7-4.7c-1.8-2.9-3.8-5.4-4.8-7.9
		c-0.3-0.7,0.7-1.2,1.6-1.2c2,1.6,4.5,3.7,6.4,5.5c1.2,1.4,1.6,2.7,2.5,4.5c0.2,0.4,2.2,0.3,2.5-0.4c0.3-0.7,0.6-1.7,0.9-3.1
		c0.7-2.7,0.2-6.5-2.3-8.9c-3-3.1-5.1-3.7-9.2-6.6c-5.2-3.6-5.9-3.3-7.9,0.1c-1.5,2.9-2.5,6-2.5,9.6c1.4,8.3,3.3,11.7,13.5,16.9
		c-0.1,0.5-0.4,1-0.8,1.4c-0.7,0.5-1,0.9-2.2,0.9c-3.6-0.1-8.5-0.2-12.4-0.5c-1.1-0.1-1.8-0.4-2-1c-3.2-12.4-1.6-25.6,4.5-36.9
		c0.5-1.1,1.4-2,2.5-2.7c2.1-1.1,5.5-2.5,7.5-3.4c1.2-0.5,1.8-0.1,2.4,1.1c0.9,3.3,1.2,5.6,1.5,8.4c0.1,1.7,0.2,3.4,0.9,3.8
		c1.6,0.7,3.1-0.7,3.9-2c3.1-5,3.9-10.6,1.6-16.6c-0.2-0.5,0.3-1.6,0.9-2c7-2.8,13.5-5.7,20.5-8.4c4-0.2,9,0.2,16.1,1.4
		c1.2,0.1,3.6,2.2,6.1,3.6c-3.2,1.6-7.9,5.1-11.2,8.2c-0.9,1-2,2.2-1.2,4.8c2.7-0.1,4.1-0.9,6.1-1.5c3.1-0.9,5.1-1.4,7.6-1.4
		c0.7,0,1.4,0.1,2,0.3c-0.1,0.8-0.4,1.5-1,2.1c-0.9,0.8-2.3,0.7-3.3,1.2c-1,0.7-2,1.7-1.4,2.9c0.5,0.8,1.8,1.8,2.8,1.6
		c3.3-0.2,6.3-0.6,9.7-1.6c1.5-1.2,7.2-8.7,4-9.4c-1.8-0.4-5.8-0.7-7.5-1.6c0.3-1.1,1-1.9,2-2.3c1.8,0.3,3.8,0.8,6.6,1.1
		c4.5,0.6,9,0.3,13.5-0.6c1.8-0.7,2.5-1.4,1.8-2.5c-2.5-5.2-7-9.1-12.5-10.9c-2.5-0.7-5.5-0.1-8-0.1l-22-0.2c-0.5,0-1-0.4-1.5-0.7
		c0.4-0.3,0.8-0.8,1.2-1c2-1.2,4.4-2.3,6.5-3.7c3.1-2.1,5.1-5.2,6-9.1c0.2-0.7,0.2-1.4,0-2.1c-2-7.5-6.1-13-14.7-13.9l-4.2-0.7
		c-1.6-0.1-2.2,0.5-2.2,2c0,2.7,0.1,4.1,0,6.8c0,1.4,0.7,1.8,2.3,2c4,0.7,7.9,1.8,11.6,3.3c2.3,0.9,2.7,2.3,0,4.6l-6.1,4.4
		c-1.1,0.7-1.6,0.1-1.7-0.9c-0.1-1.6-0.1-3.4-0.4-5c-0.1-0.6-0.5-1.1-0.9-1.6c-1.5,0.3-2.7,1.3-3.3,2.7c-0.8,2.2-1.4,4.2-1.7,6.4
		c-0.4,2.6-2.2,4.7-4.7,5.5c-1.2,0.3-2.3-0.1-2.1-1.3c0.2-1.4,0.5-2.7,0.9-4.1c2-4.8,3-8.9,2.6-13.4c-0.4-3.1-0.6-6.3-0.7-9.4
		c-0.1-1.4,0.7-2.6,2-3c3.7-1.4,7.2-2.9,11.1-4.1c1.3-0.5,2.4,0.1,3.4,1.4l7.8,9.2c2,2.2,2.6,2.1,4.4-0.3c1.6-2.3,3.4-4.4,6-5.9
		c1.4-0.7,1.4-2-0.2-2.6c-2.9-1.1-5.9-1.7-8.9-2.7c-0.7-0.2-1.4-0.2-2.2-0.5c-0.5-0.2-1.1-0.8-1.1-1.2c0-0.4,0.6-1,1.1-1.2
		c5.6-2,10.2-3.8,15.2-5.7c1.4-0.6,2-1.7,1.8-3.1c-0.1-1.8-0.7-3.4-1-5.2c-0.3-1.6-1.4-2.9-3.1-3.1c-6.8-0.7-10.9,1.2-15.6,6
		c-1,1-1.4,2.4-1.1,3.8c0.8,0.1,1.5,0.1,2.1-0.1c3.3-1,5.5-1.9,7.3-3.1c1.2-1.4,2.2-2.7,2.9-2.7c0.4,0,1.2,1.7,1.4,2.3
		c-0.7,0.8-1.4,1.6-6.8,4c-9.6,4.4-19.6,7.9-29.9,10.3c-1.4,0.1-1.3-0.8-1-1.4c1.9-3.3,4.1-6.8,6.2-10.4c2-1.2,2.6-0.7,1.8,1.2
		c-0.6,1.4-1.4,2.7-2.3,4.2c-0.2,1.4,0.4,1.7,1.2,1.6c4.7-1.3,8.1-5.3,8.5-10.2c0-1.7-0.8-2.3-2.6-2.3c-2.6,0.2-5.5,0.4-8,1.2
		c-4.8,1.2-7.6,4.6-9.2,8.9c-0.7,2-1.1,4.1-1.5,6.2c-0.4,2.3-2.3,3.1-4.3,4.2c-3.3,2-5.1,1.6-7.9,2.2c-2.4,0.4-4.8,0.9-7.2,1.6
		c0-0.8-0.2-1.6,0-2c1.6-2.6,3.1-5.1,4.8-7.5c2.4-3.5,1.8-5.5-2-6.8c-6.1-2-12.9,0.3-16.4,5.7c-2,3.3-3.6,7.2-5,10.7
		c-0.9,2.1,0,3.4,2.3,3.9c3.5,0.6,7.6-0.7,10.8-1.6c-0.2,1-0.3,5-0.6,5.8l-2,4.4c-1.3,2.2-2.7,2.9-5.1,1.8
		c-3.7-1.7-7.3-3.7-10.7-5.8c-4.1-2.4-8.1-4.1-12.6-4.1c-0.5,0-0.9,0-1.4-0.1c-1.5-0.3-1.6-0.8-0.7-1.8c1.2-1.2,1.2-2.3,0.5-3.8
		l-4.7-8.7c-0.9-1.6-1.7-3.3-2.3-5.1c1.2-0.2,5.5,1.2,5.5,2c0.3,4.8,1.8,8.2,4.3,11.2c1.9,1.9,3.7,0.7,3.9-1.2
		c0.3-2.5-3.1-6.6,1.4-16.1c1.9-4.2,7.8-11.5,11.6-11.5c2,0,3.8,0.9,5,3.9c0.7,1.4,1.2,4.6,1.8,6c0.5,1.4,1.2,2,2.7,1.9
		c3.7-0.5,8.8-2.7,13-3.3c2.7-0.4,4.7,6.2,6,8.6c2,3.6,3,6.6,5.3,2.8c4-5.5,5.8-11.6,10-13.5c5.3-2.7,11.3-3.7,17.2-2.9
		c1.8,0.2,2.4,0.9,2,2.7c-0.3,1.1-0.4,2.3-0.7,3.4c-0.4,1.3,0.8,1.8,2.2,0.7c2-1.2,3.4-2.7,4.8-4.5c3.6-3.8,7.1-5.7,14.1-5.7
		c3.3,0,5.8,0.7,8.7,1.7c2.3,0.8,2.6,1.2,2,3.4l-2,6.6c-0.7,3-0.2,3.4,2.5,4.9c2.3,1.4,4.2,2.3,5.6,4.1c1.1,0,2.1-0.4,2.9-1
		c2.8-5.8,7.2-10.8,12.6-14.3c2.2-1.2,2.7-1.1,3.6,1c1.8,4.6,2.9,8.7,3.2,13c2.5-2.9,5.3-5.9,7.4-8.2c7.4-7,14.7-6.9,24.6-4.4
		c2.5,0.7,0.5,3.1-0.9,5.1l-1.9,2.9c-0.6,1-1.1,1.1-1.9,0.2c-1.2-1.4-2.5-4-3.7-5.2c-2.3-2.3-6.2-1-8.9,0.7
		c-5.5,3.3-10.1,8-13.2,13.6c-3.3,5-7.2,9.7-11.6,13.7c-1.8,0.7-1.8,0.6-1.4-1.2c5-7.5,7.8-16.3,8.1-25.3c-1.6-0.3-3.4,0-4.7,1
		c-6.8,3.8-10.2,17.4-11.2,26.5c-0.2,1.9-0.2,3.4-1.9,4.4c-2.9,1.6-4,2.3-6.8,3.6c-0.7,0.1-1.1,0-1.7-0.1c1.4-6,0.4-10.2-3.1-15.9
		c-0.6-1.1-1.4-1.6-2.7-1.2c-0.7,0.4-1.4,1-2.9,2.2c-5.4,5.1-8.4,12.3-8.1,19.7c0,1.4,1.4,1.4,2.3,0.7c1.2-1,1.8-1.8,2.6-3.1
		c1.7-2.9,3.1-5.9,4.8-8.7c0.3-0.7,1.1-1.2,1.7-1.4c0.3,0.7,0.3,1.4,0.2,2l-1.2,5.5c-1.1,3-3,5.6-5.5,7.5c-0.5,0.7-0.8,1.9,0.5,2
		c5.9,0.3,9.3-0.4,14.3-3.1c5.3-2.7,8.9-5,11.2-4.7c1.6,0.2,9.6,2.5,10.2,3.1c-0.4,0.8-1,1.1-1.5,1.6c-0.8,0.7-4.7,2.8-6.4,4.2
		c-2.7,2.3-3.7,3.3-3.1,7.9c0.3,2,0.6,4,1.1,5.9c0.2,0.6,0.7,1.5,1.1,1.6c0.7,0,1.4-0.5,1.8-1c2.3-2.7,4.4-5.7,6.6-8.5
		c0.4-0.3,0.9-0.6,1.4-0.8c0,0.5,0.1,1,0,1.4c-0.5,3.3-2.2,5.9-4.2,8.3l-1.4,1.7c-1.8,2.5-1.9,2.9-0.1,5.5c2,3,2.4,6.4,1.7,9.6
		c-0.5,2.4-1.2,5.9-1.7,9.4c-4.3,2-8.7,4.8-12.3,7.2c-2.3,2-2.7,3.7-2.7,4.2c1.1,1.4,2.1,1.6,4.2,2.5c3,1,8.6-0.2,9.6-3.4
		c0.3-0.8,0.7-2.2,0.7-3.5c1.1,0.2,2,0.2,2.3,1.1c1.1,3.4,2,5.7,4.2,8c-0.3,0.9-0.7,1.6-1.6,3c-1.3,2.1-2.4,4-4.2,3.6
		c-0.7-0.1-1.4-0.3-2.3-0.3c-1.4,0-2.7,0-2.5,2.5c0.3,3.1,0.7,4.6,0,7.8c-0.4,1.8-1,3.7-2.7,3.6c-4.3-0.3-7.1-3.5-11.3-3.4
		c-3.6,0.1-6-0.5-7.9-1.4c-2.2-1.2-3.8-2.4-4.8-3c-17.3,2.9-36.3,6.4-51.2,9.6c-1.6,0.3-1.5,1.4-1.8,3c-0.8,3.8-2.3,7.4-2.9,11.2
		c-0.1,0.6,0.7,1.4,1.1,1.9c0.4-0.4,1-0.7,1.4-1.2c0.9-1.3,1.5-2.8,2.5-4.1c1.8-1.9,6.4,0.1,7.2,2.7c0.7,1.6-1.5,2.3-1.4,4.1
		c0.1,1.5,2.3,2.9,2.3,4.8c0,1.7-0.7,2.8-1,3.7c6.4,4.1,8,7.5,8.2,12.8c0.2,1.6,0.2,2.5,1.1,3.4c0.9,0.9,2.3,2.2,2.9,3
		c3,3.5,5.7,9,7.8,9.6c1,0.3,3.6,0.5,5.6,0.3l0.4,1.1c-0.7,1.6-2.5,3.5-4.1,4c-4.7,1.5-7-5.5-9.6-9.6c-1.1-1.9-2.5-3.6-4-5.3
		c-2,2.3-5.5,11.3-5.2,15.6c1.4,5.8,4.8,11.5,7,15.7c1.6,2.6,4.6,3.5,7.6,4.6c2.5,0.9,4.4,1.4,7,0.6c1.4-0.3,1.8-0.4,2.5-0.9
		L273,536c0.7-9.6,2.2-19.1,2.8-27.3c0-2.2,1.6-5.9,4.4-7.8c2.9-2,4.1-4.8,4-8.3c-0.1-1.2,0.1-2.4,0.7-3.4c1-1.9-0.9-1.9-2.7-2.2
		c-2-0.3-2.5-1.1-1.5-2.9c1.9-3.2,4.6-5.9,6.8-9c1.4-2.2,2-3.8,2.5-5.1c-0.5-2.7-0.3-6.6,2.3-6.8c8.7-1,12.3-0.3,17.8,3.9
		c0.3,0.5,0.4,1.4,0.4,2s1.6,1.2,4.5,4.2c2.3,2.1,4.4,8.1,0.6,17.2c1.9,1.2,1.8,2.9,1.6,5c-0.1,1.8,0.4,2,2,2.7
		c2,0.7,3.1,1.9,4.8,6.1c1.5,4.1,5.9,14.8,8.5,41.1c-0.5,8.3-1.9,14.3-3.6,21.1c1.8,12.6,3.8,28.1,5.3,49.4
		c1.3,20.1,1.6,30.4,2,38.7c3.6,0.3,4.6,1,5.4-2l0.7-2.8c0.7-2,2.7-1.3,2.7-0.2l2.2,6.4c0.5,1.8,1,3,1.7,4.8c2.4,3.3,3.4,0.4,3.4-2
		c0.3-2,0.3-3.8,0.3-5.6c0.4-2.4,1.6-2.5,2.5-0.9l3.1,7.4c1.2,2.6,2.4,3.3,2.9,1.7c0.4-2.1,0.5-5.9,0.4-8.9
		c-0.5-1.7-1.2-3.6-1.5-5.1c0-2,1.6-1.6,2-1c3.9,4.7,7.6,9.6,11.1,14.5c2,1.2,3.3-0.9,2.7-1.7c-0.1-0.8-1.2-1.8-1.2-3.5
		c0.3-2.6,2.7-1.4,3.3-0.5c2.3,2.3,3.8,5.2,5.1,7.6c0.6,0.5,1.3,0.9,2,1c0.5-0.7,0.7-1.7,0.6-2.4c-0.1-0.8-1.1-2.7-1.4-3.6
		c1-1.6,2.9,0.4,3.5,1c0.7,0.7,1.4,1.8,2.3,3.3c1.2,1.9,3.3,3.6,7.8,4.2c0.1,0.4,0.3,1,0.3,1.4c-0.6,0.4-1.6,0.9-4.4,1.4
		c-4.7,1-10.6,1.1-17.1,0.3c-4.4-0.5-8.8,0.4-12.6,2.7c-2.7,1.6-5.5,1.4-8.7,1.2c-6.1-0.3-12.3-0.3-18.6-0.4
		c-13-0.3-19.5,2.3-34.1,3c-4.8,0-14.8-2.5-14.8-5.5c0-2.1,1.2-3.9,1.2-5c0-1.4-0.3-1.7-1.5-2c-10.4-1.8-20.8,0.5-30.3,2.3
		c-8.1,1.2-12.3-0.1-16.5-3.4c-2.4-1.7-4.4-3.8-5.9-6.2c-4.7-5.9-10.2-11.1-16.3-15.5c-6.8-5.5-15.5-15.4-20.9-22.2
		c-1.2-1.4-3.3-8.4-4.1-10.4c-1-2.9-1.3-6-1-9c0.8-0.7,1.8-1.5,2.6-1.6c4.6-0.1,10.2-2.3,10.4-3.7c0.5-1-0.3-1.9-1.2-1.6
		c-2.4,0.4-5.7,0.4-8.1,0c-1.4-0.2-3-0.8-3.6-1.5c0.8-1,1.4-1.8,2.3-2.3c3.8-0.5,7.5-1.9,10.7-4.1c0-0.5-0.1-0.9-0.3-1.4
		c-3-0.1-5.3-0.1-8.7-1c-1.2-0.4-2.4-1-3.3-1.9c0.9-1.2,1.4-1.6,2.5-2c3.8-1.2,6.6-3.1,9.2-5.5l-0.1-1.5c-3.1-0.1-6.8-0.3-10.4-1.1
		c-1.6-0.8-1.7-1,0.1-2.9c2.5-0.6,7-1,9.4-1.8c1.8-1,1.5-2.5-0.3-3.1c-3-0.1-5.9-0.4-8.9-1c-1.8-1.6-2-1.8,0.3-2.9l7.9-1.6
		c3-1,2.5-2.9,0-3.7c-2.4-0.3-4-0.8-6.4-1.2c-3.1-1.6-3.1-1.7-0.5-2.7l5-1.4c1.4-0.3,2.7-0.9,3-1.9c0.1-0.3,0-0.7-0.1-1
		c-2.1-0.6-6.4-0.2-8.3-0.8c-0.7-0.1-1.4-0.9-1.8-1.8l1.8-1c2.3-0.5,4.9-1.6,6.8-2.6c0.3-0.5,0.6-1.1,0.8-1.7
		c-0.4-0.3-0.9-0.5-1.4-0.7c-2.5-0.7-3.9-1.2-6.4-2.2c-1.4-1.7-1.3-2,0.5-2.8l3.6-1c-0.5-1.2-1.1-2.4-1.8-3.6
		c-0.3-0.5-0.7-0.9-1.2-1.2c-2-1.2-5-2.5-7.2-3.9c-4.1-2.5-8.4-5-11.6-8.2c-4.3-3.7-7.3-8.6-8.6-14.1c-0.6-3.4-0.7-7-0.1-10.4
		c0.4-2.6,1.8-5.3,3.2-7.8c0.5-0.9,1-1.7,0.4-2.5c-2-2.6-3.8-4.4-6.4-6.8c-1.2-1-2.6-1.7-4-2c-8.1-1.4-13.1-3.1-16.8-2.6
		c-1.4,1.3-2.5,2.9-3.1,4.7c0.7,2.7,2,7,2.1,10.4c3,0.3,6.6,1.4,10.2,3.4c2.9,1.9,3.6,2.9,4.8,6.6c2.5,8.2,3.2,18.6,5,29.8
		c1.6,10.7-4,19.5-14.8,19.9c-5.9,0.3-10.7-0.9-12.2-4.8c-1.9-5.6-3.3-10.3-5.2-15.9c-7.6,1.9-15.7,4.5-23.9,8.5
		c-7.2,3.4-13,6.7-20.6,9.8c-14.4,5.9-30.3,9.6-44.6,9.6c-7.5,0-15.9-1.5-21.7-3.8c-5.2-2-7-4.2-8.2-10.7
		c-0.9-5.6-0.9-11.2-0.3-16.8c0.7-5.5,1.6-9.3,5.3-19.5c1.6-4.5,3.8-6.6,7.2-8.4c5.9-2.8,12.3-4.1,18.9-3.8c2.3,0.1,5.2,0.5,7.2,1.4
		c4.1,1.5,4.7,4.8,4.8,8.9c0,2.4,0.1,4.8-0.1,7.2c-0.2,1.9-0.1,2.7-0.1,3.4c5.2,0.8,16.1,0.5,21.2-0.7c4.2-0.9,5.9-1.6,13.7-5.2
		C97.2,498.7,104.4,493.3,112.8,488.9L112.8,488.9z M276.3,580.2c0.5,1,1.6,6.1,1.6,7.9c0,4.2-0.3,8-0.8,14.5
		c-0.7,8.5,0.2,17.1-1,25.4c-0.5,4.1-1.5,10.4-1.2,16.1c0.1,2.3,0.4,2.9,1.7,3.1c4.1,1,6.8,1.4,8.9,1.4c6.3,0,10.4-2.9,9.8-6.4
		c-2.1-7.7-3.1-15.6-2.9-23.5l1.6-0.1c2.3,9.6,4.3,14.3,5,19.3c0.8,4.5,0,12.2,0.9,16.2c10.5,1.2,23.1,0.1,26.9-0.7
		c1-8.6,0.7-17.4-3.1-20.7c-1.6-1.4-6.3-5-8.3-6.4c-4.4-3.4-8.2-7.7-11.2-12.4c-4.5-7.1-5.7-9.4-9.7-16.3c-3.7-6.4-6.1-12-8.7-15.7
		c-1.6-2.5-2.9-4.1-3.6-4.8c-3.3-1-6-1.4-9.6-1.8c-4.4-0.5-7.4-1-9.9-3.8c-2.2-2.2-3.1-4-1.8-6.9c0.7-1.6-0.2-2.7-1.4-4
		c-1.3-1.6-1-3.4,0.7-4.6c3.9-3.8,7.5-5.7,12.6-7.1l-0.8-3.6c-2,0.3-4.3,0.9-8.4,0.9c-5.7,0-10.8-2.3-12.8-9.8
		c-0.8-2.7-4.1-10.2-5.1-13.5c-0.7-2,0.1-4.6,1-7.5c-1.8-2.2-3.3-4.6-4.8-6.7c-3.1-1.3-6.8-2.6-9.2-5.6c-1-1.2-1.5-1.3-2.4-0.7
		c-0.8,0.6-1,1.5-2.2,2.5c-1.1,1-3.3,1-5.5,0.1c-2-0.8-3.1-2.9-3-5c0.2-2.7,1.6-5.1,0.3-6.2c-2.1-2.3-4.1-4.8-1.6-6.6
		c0.7-0.6,2.3-0.5,3.2-1c2.7-1.5,4-4.7,3.3-7.6c-0.5-2.3-1.8-3.3-4-3.5c-3.2-0.2-4.6-1.8-4.6-4c0-2.7,2.4-3.9,4.6-3.4
		c0.9,0.2,2.1,0.7,2.9,1.4c0.2,1,0.7,2.5,1.5,2.3c3.7-0.4,6.6-4.2,6.6-7.9c0-1.2-0.8-1.8-3.2-1.3c-4.4,0.7-9.8,2.3-15.2,4.2
		c-3,1-3.4,3.4-1.8,6.1c0.5,0.6,1,1.4,1.4,2c0.7,1.1,0.4,1.9-0.7,2.5l-1.4,1c-1.6,1.2-1.8,2.6-0.8,4.4c0.3,0.7,0.7,1.2,1.2,1.6
		c1.2,1.1,1.2,2,0.1,3.4c-1.4,1.5-1.8,3.6-1.1,5.5c0.5,1.6,1.7,10.4,1.7,12.2c-0.1,4.6,0.8,9.2,0.5,13.5c-0.2,3.1,1.4,5.9,4.4,9.3
		c3.3,3.6,5.7,6.9,10.1,11.2c5.3,5,8.1,10.9,8.6,18.2c0.2,3.4,1.8,4.6,5.1,6.4c6.9,1.9,9.3,5.8,10.1,11.1
		c1.4,9.4-3.2,18.4-11.6,17.6c-4.3-0.4-6.4-3-6.4-5.3c0-2.4,1.2-4.8,3.2-5.5c0.3-0.1,1.6,0,1.8,0c0.2,0.5,0.2,1,0.2,1.5
		c0,0.6-0.8,1-1.1,2.2c-0.2,0.8-0.2,2.5,0.6,3.5c0.9,1.2,2.5,1.6,4.1,1c1.9-0.6,3.2-2.3,4.1-4c3.9-7,1.9-15.4-5.5-17.2
		c-2.4-0.7-5.8-1-8,0.3c-4.6,2.9-8.6,4.5-12.5,8.1c-0.6,0.6-1,1.4-1,2.3c0.1,15.5,1.2,31,3.3,46.4c0,3.3,2.5,7.5,3.4,8.1
		c2.7-2,3.4-4,5.8-7.7c1.2-0.7,1.7-0.3,2,0.8c-0.1,3.5-0.8,6.8-0.3,9.8c0.2,0.9,1.2,1.7,1.9,2.3c1.6-1.5,1.7-3.8,2.4-5.5
		c1.8-1.9,2.3,0.2,2.3,0.8c-0.1,2.3,0,4.3,0.2,5.5c0.1,0.9,0.9,1.1,1.6,1.3c2-4,4.5-7.5,7.7-9.7c1.9-1.4,3.1-0.2,2,1.7
		c-1.9,3.6-3.4,7.5-4.4,11.5c0.6,0,1.3,0,1.9-0.2c0.4-0.1,1-0.3,1.2-1.4c1.4-3.4,2.1-3.8,3.7-1.4c0.7,2.3,1.7,4,3.1,4.6
		c2-0.5,2.2-3,3-4.8c2.2,0.1,2.3,2.5,3.4,3.7c0.8,0.6,7,0.8,8.1,0.7l-0.2-3.6c-0.1-7.2,0-13,0.5-20.2c0.5-7.5,1.4-15.2,1.8-21.9
		c0.3-5.5,1-13.8,1.4-20.3L276.3,580.2z M378.6,440.6c-1.6-0.3-8.5-0.7-10.3-0.7c-1.5,0-5.6,0-5.7,2.1c0,0.6,0.8,1.7,1.8,2.3
		c5,3.4,18.9,4,24.6,3.1c0.1-1.4,0-2.9-0.5-4.2c-1.4-4.2-6.5-7.9-11.2-9.4c-5-1.2-10.1-1.4-15.2-0.5l-1-2.5
		c1.6-7.4,1.4-14.2,0.4-19.6c-0.6-3-1.4-4.4-3-6.8c-1-1.4-2-1.3-3.3-0.3c-0.8,0.7-1.6,1.6-3.1,3.4c-4.7,5.7-4.5,9.6-3.7,18.2
		c0.5,0.4,1.2,0.8,2.7,0.8c1.5,0,2.2-0.7,2.4-2.7c0.1-2.9,0.8-5.9,1.2-8.5c0.7,0.2,1.9,1,2,1.5c0.3,4.4-1.2,9.1-2.3,13.2
		c0.3,0.5,3.6,1.9,3.1,3.3c-0.4,1-5.5,2.3-9,2.6c-2-3.1-5-5.5-8.4-6.9c-2-0.8-4.3-1.5-2.6-2.9l2.7-1.1c4.8-2,3.2-4.7,3-9.4
		c-0.2-1.8-0.9-2.3-2.5-2.2c-2.4,0.1-4,0.3-5.9,1.4c-3.6,2.2-6.3,5.8-8.9,8.7c-0.5,0.5-1.5,0.3-2.3,0.3c1.4-4.3,3.1-9,4.5-12.8
		c0.5-1.4,1.1-2.7,2.6-2.4c7.4,1.7,14.9,0.3,20.1-4.9c2.2-2.3,2.2-3.4-0.6-5.4c-4.4-3.6-10.2-4.9-15.7-3.4c-2.3,0.9-3.8,2.2-4.1,4.5
		c-0.2,1.4,6.6-0.5,9-0.3c0.7,0.1,1.2,0.7,1.6,1c-4.4,1.9-9.4,2.9-13.7,4.1c-1.4,0.3-1.9,0-2.1-1.4c-0.5-2.2,0.3-4.6,2.1-6
		c3.2-2.7,5.7-5.9,6.4-10.2c0.4-2.3-1.5-5.8-2.5-7.8c-0.1-0.5,0.1-1,0.2-1.4c2.7,0.7,6.4,2.5,8.7,4.1c1.4,7.1,6.5,12.8,13.5,14.9
		c2.4,0.8,4.8,1.7,7.4,2.5c2.3,0.7,4.1,0.1,4-2.5l-0.1-3.4c2-0.9,4.4-1.6,4.9-1.5c3.9,0.5,7.9,2.5,11.9,3.8c2.7,1.4,1.4,2.3-0.5,2
		c-3-0.5-5.9-1.4-8.8-2c-1.8-0.4-3.3,0.4-3.6,2.2c1.2,2.2,6.8,4.8,8.9,5.6c3,1.1,14.3,2.4,14.2-0.7c-0.1-3-0.6-6.1-1.4-9
		c-0.7-2.5-2.9-4-5.3-4.6c-5-1.2-10.1-1.8-15.2-1.8c-1.2,0-3.4,0.7-5.5,1.8l-0.6-3.3c-1.1-4.6-3.3-5.7-6.7-6.8
		c0.2-1.4,0.2-2.3,0.2-3.7c3-1.7,6.7-4.6,8.1-7c-1.2-1.2-3.4-1.8-4.6-2.2c-4.6-1.6-5.1-3.4-8.3-4.8c-2.3-1.1-4.8-1.7-7.4-1.8
		c-2.3-0.1-5.5,0.5-6.1,1.4c-0.3,0.6,0,1.6,1.4,2.5c2,1.6,6.4,2.7,8.5,4.2c1.4,0.8,0.7,1.1-0.2,1.2c-2.9-0.2-5.8-1-8.3-2.4
		c-1.6-0.8-2-1.5-3.2-1.9c-2-0.7-2.4-0.1-3.8,2.3c-1,1.7,0.2,2.6,1.6,3.4c4.9,2.7,8.5,4.3,14.8,5c0.7,0.7,0.8,1.8,1,3.2
		c-6.1-0.8-8.2-0.9-12-2.3c-6.1-3.3-10.9-5.9-16.8-7.8c-1.1-0.5-1.5-1.2-0.3-1.9c6.1-3.7,12-8.2,18.2-11.6c0.9-0.5,2.3-0.3,3.4-0.1
		c3,0.5,4,1.5,7,2.4c1.8,0.7,3.5,1.2,3.8-0.5c0.9-4.5,2.3-7.9,3.6-9.8c2.7-4.2,6.6-6.4,11.7-9.6c1.9-6.5,8.2-13.1,10.4-13.1
		c6.1,0,12.3,11.1,13.5,15.3c0.8,3-4.1,5.6-0.8,5.6c2.9,0,5.5,0.5,5.5,2.9c0,4.3-1.2,8.7-3.4,11.8c-2.3,3.1-4.8,6.6-7.9,8.7l0.2,1.1
		c5.3,4,11.1,6.8,11.1,12.8c0,3.2-0.9,5.5-2.7,7c-1.4,1.2-2.6,2.5-2.5,4.3c0.2,4.2,0.5,6.5,0.2,10.6c-0.2,2.7-8.5,3.3-9.7,4.5
		c1.4,7,0.6,14.3-2.3,20.8l1.7,3.1c8.5,5.9,9.6,11.3,10.8,16c-2.3,2.3-6.1,4.2-7.5,4.2c-5.5,0-17.6-4.1-19.9-4.4
		c-1,1.7-0.4,3.3,0.8,6.7c1.1,3.1,3.1,5.2,3.1,8.1c0,1.4-0.2,3.6-4.1,4.2c-6.5,0.5-12.9-1.2-18.2-5c-1.1-0.6-2-1.4-3.1-1.8
		c-1.8-1-4.2-0.3-4.8,1.8l-1.2,4.1c-0.7,2.3-1.8,2.5-4.9,1.8c-8.7-1.8-12.7-11.2-12.7-19.5c0.4-1.7,1.8-1,2-0.2
		c0.5,4,2.3,7.9,3.6,11.2c1.6,3.1,3.7,4.8,7.1,5.3c0.7,0,1.6-1.3,2.5-2.7c1.8-3.9,3.6-6.5,3-11.1c-0.2-1.6-0.7-3.8-1.8-5.3
		c-0.5-0.7-1.4-1.2-2.5-2c0.5-0.8,1.2-1.6,1.8-1.4c3.8,1.4,6.7,1.4,9.1,0.1c1.5-0.8,2.2-1.8,3.2-3.1c3.3-0.8,8.7-2,13.2-2.7
		c6.1,0,11.6,0.8,16.2,2.9L378.6,440.6z M144.9,590.4c3.3,0,7.2,1.6,7.2,5.2l-0.7,1.8c-0.3,0-0.6-0.1-0.8-0.2
		c-1.2-2.7-3.2-4.2-6.4-3.6c-3,0.6-5.6,2.1-7.5,4.2c-1.3,1.4,1.4,2.2,3,3.1l3.4,2c0,1.8-4.6,14.8-2.3,15.2c5.9,1,13.7-7,14.5-18.4
		c-0.2-4.1,2.1-6.1,6.6-7.6c5.3-2,7.9-4.4,7-10.2c-0.4-2.9,1.2-2,2.8-4.4l1.8-1.9c0.3,0.8,0.9,2.7,0.7,3.6c-1.2,4.7-0.3,8.4,2,12.6
		l4.4,11.3c1,1.1,2,0.2,3,1.4c3.8,7.6,8,18.9,13.7,23.8c4.7,3.9,9.7,10.7,14.1,14.8c2.6,2.3,4.4,8.1,7.6,9.2c2.3,0.8,2.3,2,1.9,4.2
		c-0.4,2.6,0.7,3.1,1.6,3.1c1.6-0.2,3.1-0.6,4.7-0.7c3.6,0.8,2.7,3.1,0.1,3.6c-1.8,0.2-3.5-0.1-5.3-0.1c-0.6,0.1-1.2,0.4-1.8,0.7
		c0.2,0.7,0.5,1.4,1,1.8c2.9,1.6,4.9,1.8,7.7,2.4c0.5,0,1,0.4,1.6,0.6c-0.2,0.5-0.8,1.6-1.4,1.8c-0.9,0.1-2,0.1-3.1,0
		c-2.5-0.5-4.8-1.6-7.2-2.7c-0.8-0.3-1.4-1.2-2.1-1.7c-0.6-0.3-1.4-0.4-2-0.6c0,0.8-0.3,1.6-0.2,2.3c0.5,1.1,1.7,3,1.2,3.4
		c-0.2,0.3-1.8,1.4-2.3,1.1c-2-1-3.7-3.3-5.6-4.4c-2.5-1.6-4.7-1.6-7,0.1c-2.4,1.6-4.5,3.1-6.8,4.4c-2.8,1.8-5.8,4.8-9.2,4.8
		c-1.8,0-6.4-2.8-8.5-3.4c-3.8-1.2-5.1-1.4-9.2-2.3c-3.4-0.8-6.4,0.5-9.9,1.6c-4.2,1.3-8.9,1.8-13.5,2.7c-2.6,0.5-5.6,0-8.3-0.1
		c-4.1-0.1-8.1-0.5-12.1-0.4c-2.7,0-5.6,0.5-8.2,1.4c-1.2,0.3-2.5,0.5-3.6,0.5c-1.8,0-3.6-0.5-5.3-1.6c-1.7-1.1-3.8-1.5-5.8-1.1
		c-1.9,0.4-5.7,1.1-7.2-0.3c-1.9-1.9-6.5-5.7-9.1-5.3c-8.1,1.4-12,6-19.9,3.9c-5.6-1.4-9.3-2.7-14.8-1c-1.4,0.5-4.9-0.3-6.4-0.1
		c-2,0.3-2.7-0.1-2.5-2.2l0.2-1.1c0.3-2.1-1.7-3.7-3.8-2.9c-2.3,0.7-3.6,3-5.7,4.1c-3.9,1.9-7.5,1.4-11.7-0.3
		c-2.9-1.2-5.8-0.7-8.5,0.7c-1.8,1-4.6,5.1-6.6,5.1c-0.7,0-1.7-1.1-2-2v-2c1.2-1.7,2.7-3.1,4.5-4.2c4.8-2.3,10.3-3,15.6-2
		c2.5,0.4,5.1,0.7,7.4-0.3c1.8-0.8,3.8-1,5.5-1.8c3.1-1.6,5.7-3.1,9.2-1.8c2.5-1.2,3.9-2,5.2-3.9c0.6-3.1-0.5-6.3,0.3-9.3
		c0.7-2.7,1.8-6.1,2.7-8.7c0.5-1.4,1.5-1.2,2.4-1.1c2.5,3.6,5.5,7,4,10.4c-1,2.3,4.3,4,3.4,6.3c-0.9,1.8-0.5,2.9,1.3,3.1l1.4,0.1
		c1.6,0,1.6-1,1.6-3c0.1-11.2-3.6-19-7.4-27.8c-1.6-3.4-1.3-6.8-0.1-10.2l2.3-7c1.2-3.3,4-6.1,7-7.4c0.4-0.1,1.6,0.4,1.8,1
		c5,7,6.8,15.6,4.4,24c-0.7,2.5-1.2,5.2-1.7,7.9c-0.1,0.7,0.1,1.4,0.2,2c0.5-0.4,1.1-0.8,1.5-1.4c2.5-3.7,5-7.3,7-11.3
		c1.9-3.8,5.1-5.4,9-6.1c4.3-0.9,5.5-0.3,4.4,3.8c-0.7,2.5-1.4,4.9-2.3,7.1c-1.1,3.8-3.7,7-7.2,8.8c-2.5,1.4-4.7,3.2-6.8,4.8
		c-0.8,1.1-1,1-0.1,2.1c0.8,1,2,0.4,3.1-0.2c4-2.9,8.2-5.3,12.3-7.5c1.5-0.7,2-0.1,1.8,1.6c-0.2,2-0.5,4.8-2.5,5.6
		c-2.3,0.8-5.3,1.1-7.2,2c-1.3,0.8-2.4,1.8-3.4,2.9c-1.4,2-1.4,3.4-2.5,5.6c-0.2,0.5,0,1.3,0.1,2c0.7-0.3,1.4-0.3,1.8-0.5
		c2.7-1.9,4.1-4.1,6.8-6.1c2-1.6,2.5-1.4,3.3,1.2c0.3,0.8,0.9,1.5,1.7,2.3c0.8-0.5,1.7-1,2.3-1.8c2.4-3.6,3.9-10.7,7-15.4
		c0.5,0,1.2,0.4,1.6,0.6c0.7,1.6-0.2,7-0.1,8.1c0.1,3.3,1.1,4,4.1,2.5c2.3-1.2,4.4-2.4,6.7-3.6c2.5-1.2,4.4-0.3,3,1.6
		c-0.8,1.2-1.9,2-2.6,3.3c-0.4,0.7-0.3,1.8-0.4,2.7c0.7,0,1.6,0.1,2.3-0.2c1.8-0.5,3.6-1.3,5.3-2c2.4-1.1,4.8-0.8,7.5,0
		c2.5,0.9,5.1,1.5,7.5,2.2c2,0.5,4.2-0.4,5.9-1.2c3.5-1.7,7.1-3.1,10.8-4.2c5-1.5,9.6-4.2,13.5-7.7c0.9-1,2.3-1.4,3.3-2.4
		c0.8-0.7,1.5-3.9,1.6-4.9c0.7-2.7-0.4-9.2,0.1-12c0.3-0.7,0.9-2.2,1.4-2.9l1.2,0.3c0.3,1,0.8,2.6,0.8,3.4
		c-0.2,4.9-0.3,15.8-0.8,20.6c0,1.1-1.9,2.9-3,3.3c-8.6,3.1-17.3,6.4-26,8.9c-3.9,1.1-8.2,0.5-12.3,0.5c-3.3,0-6.5-0.5-9.7-0.3
		c-2.5,0.2-6.1,2.5-8.7,2.9c-7.1,1.1-13.2,0.6-20.3,1.9c-6.5,1.2-12.7,3-18.9,4.7c-1.6,0.5-2.5,1-3.9,1.9c-0.5,0.4-0.6,1.2-0.8,1.6
		c0.7,0.3,1.4,0.8,2,0.7c1.6-0.1,2.9,0.3,4.5,0.1c3.8-0.6,7.6-1,11.6-1.4c0.8,0,1.9,0.5,2.7,1.1c1.9,1.3,3.8,1.7,6,1.2
		c2.3-0.5,4.4,0.1,6.4,1.6c3.6,2.9,4.4,3,8.5,0.7c3.1-1.7,6.6-1.7,10.1-1.5c7.8,0.4,15,1.6,22.1,2.9c5.5,1,11.1-1.2,14.5-5.6
		c2-2.5,3.9-5,5.5-7.4c1.3-1.7,2.7-2.9,4.8-2.9c4.4-0.1,8.9-1.1,13.2-0.8c2.5,0.2,3.6,2.5,3.6,3.9c-0.1,1.4-0.7,2.3-2.4,2.3
		c-3.3-0.2-6.6-0.4-9.8-0.8c-3.4-0.3-6.1,0.7-8.2,3.3c-1.1,1.2-0.8,2,0.8,2.5c0.7,0.1,1.6,0.4,2.3,0.5c1.8,0.2,2.6,1,3.1,2.7
		c0.3,1,2.5,2,6,2.3c4.6,0.3,7,0.3,10.9-1c1.6-0.5,2.7-2.5,3.9-3.9c2.6-3.8,4.4-4.7,9-3.8c3.3,0.6,5.5-2.9,8.4-2.7
		c5.4,0.7-0.7-10.2-4.1-13.7c-4.7-3.5-8.5-10.4-12.6-15.5c-3-3.8-6.6-5.2-9.2-9.8c-5-8.3-9.1-18.4-14.6-25c-2.2-2.3-6.9-0.7-9.2,0.5
		c-1.1,0.4-2,1-2.7,1.9c6.7,5.7,7,13.5,4.6,19.3c-0.7,1.8-1.4,1.8-3.3,1c-1.7-0.6-3.6-1.4-5.3-2.1c-1.2-0.6-2.2-0.3-3.4,0.4
		c-5.1,3.1-11.3,7.2-12.3,6.2c-2-2-5.3-8.2-5.1-11.3c0.1-2.6,1-4.8,2-6.2c-2.3-1.2-4.5-2.7-6.6-4.2l-0.1-2.3
		C134.7,594.4,140.4,590.4,144.9,590.4L144.9,590.4z M17,531c0.5,4,2.3,7.3,6.1,8.8c5.6,2.3,13,3.7,19.3,3.8
		c7.4,0.2,15.6-0.4,24.3-2c13.7-2.8,26.9-7.4,39.3-13.7c7.6-4,15.6-7,23.9-9.1c8.6-2.4,17.7-2.6,26.4-0.7c3.9,0.9,4.7,0.9,4.2-1.9
		c-0.3-1.8-0.8-3.7-1.1-5.6c-1-6.6-0.7-12.7-3.1-18.3c-0.8-1.5-2.1-2.7-3.6-3.3c-2-1-4.1-1.6-6.3-1.9c-4.4-0.7-8.9-0.7-13.2,0
		c-6.9,1-13.7,3.1-19.9,6.1c-6.8,3.3-13.7,7.1-18.8,10.2c-8.3,5.1-17.9,7.9-27.7,8c-6.5,0-10.8-0.2-17.3-0.9
		c-8.9-0.5-17.6-2.9-25.5-7c-1.8-0.9-2.7-0.6-3.4,1.2c-3.2,8.4-4.4,17.4-3.4,26.4L17,531z M320.9,602.7c-2.3,0.3-7,1-9.7,1.1
		c-0.9,0-1.8-0.1-2.7-0.3c0.4-0.8,0.7-1.1,1.2-1.3c3.3-1.7,6.9-3.3,9.4-5.2c1.4-1,1.1-2,0.7-2.9c-4.6,2-8.9,2.9-13.7,3.8
		c-0.3,0-0.5-0.3-0.7-0.5c3.8-2.8,8.7-5.1,11.5-7.5c1.8-1.5,0.5-1.9-0.1-2.5c-4,1.4-7.9,2.7-12.1,3.8c-0.6,0.1-1.3,0-1.9-0.2
		c0-0.8,0.8-1.2,1.5-1.6c4.1-2.1,8-4.7,11.6-7.6l-0.2-1l-1.4-0.1c-3.2,0.5-10.3,1.6-14.2,2c-1.9,0-1.6-1.1-1.2-1.4
		c3.1-1.4,5.5-3,7.7-5.4c0.8-0.9,0.7-1.7,0.4-2.1c-3.7,1.7-7.9,1.8-10.4,2c-0.5-0.6,0.1-1.4,0.4-1.6c3-1.2,3.6-2.1,5.2-3.1
		c1-0.7,3.2-2.2,3.7-3c0.2-0.3,0.1-1.1-0.1-1.4c-2.9,1-6,1.8-9.1,2.2c-0.6,0-1.1-0.1-1.6-0.3c0.3-0.7,0.4-1.2,0.8-1.4
		c4.2-2.2,6.5-3.1,9.5-4.9c0.9-0.6,1.7-1.9,2-2.7l-0.3-0.4c-3.4,1.1-6.9,2.3-10.4,3.2c-0.7-0.1-1-0.5-1.6-1c0.3-0.5,0.7-0.9,1.2-1.2
		c7.1-2.4,13.7-6.2,19.3-11.1c1.6-1.4,3.1-2.9,3.7-4.2l-0.5-0.8c-6.8,4.8-13.5,8.9-21.3,12c-1.6-0.1-1.2-1.1-0.7-1.5
		c0.7-0.7,2.7-3,4.4-5.2c6.5-2.4,12.6-5.9,17.9-10.3c0.4-0.4,0.6-1.6,0.3-2.3c-3.5,1.6-8.8,4.6-13.5,6.3l-0.9-0.3
		c0.2-0.8,0.6-1.6,1.1-2.4c3.1-2,7.6-5.3,11.2-9.2c0.1-0.5,0.3-1.1,0-1.6c-2.9,1.6-6.2,2.7-9.2,3.8c-1-0.7,0.2-2.5,0.3-2.9
		c4.3-3.6,6.4-5.9,8.5-8.9c0.4-0.7,0.4-1.3,0-2.4c-2.4,1.7-5.8,2.7-8.5,3.8l-0.8-0.2c-0.1-0.9,0-0.7,0.3-1.4
		c3.1-2.9,5.8-5.1,7.7-8.4c0.2-0.3,0.1-1.2-0.2-1.8c-2.6,0.9-4.6,1.6-7.4,2.3c-0.3,0-0.7-0.1-1-0.2c0.1-0.9,0-1.1,0.3-1.8
		c1.9-1.6,3.8-3.9,5.6-6.6c0.5-0.7,0.4-1.4,0.1-1.8c-1.4,0.3-3.8,0.7-5.1,0.8c-0.5,0.1-1.2-0.5-1.6-1.1l4.8-3.4
		c0.4-0.4,0.6-0.8,0.8-1.3c-0.6-0.3-1.1-0.6-1.5-0.5c-2,0.3-4,0.5-6,0.9c-4.5,1-4.5,1.6-4.9,2.9c-1.3,5.1-2.9,10.1-5,14.9
		c-0.6,1.4-1.4,2.7-2.7,3.2c-1.9,1-1.5,2-2,3.8c-0.8,3.7-1.4,3.4-2.9,7c-0.9,2.5-2.4,4.9-4.2,6.8h-1l-0.3-5.1
		c-0.4-3.4-1.1-2.7-1.6-6.1c-0.3-3.1,0.4-6.4,0.8-9c0.3-3.1,0.7-8.4,0.7-11.4c-0.3-0.2-0.5-0.7-1-1c-0.4,0.4-0.8,0.8-1,1.4
		c-0.6,2.3-1.7,6-2,8.4c-0.8,5.6,0.4,11,0,16.7c-1,5.8-1.3,11.7-0.7,17.6c1.8-0.2,1.7-0.4,4.3-1.4c3.4-1.4,5.9-1.8,9.4-4.9
		c2.5-2.1,2-6.3,2.9-9.7c1.2-4.1,2.7-5.6,4.4-6.3c0.5-0.1,1,0.1,1.4,0.2c-1,2.3-1.5,3.6-2.4,6c-0.8,2.1-1.6,5.6,0.7,6l1.7,0.3
		c0.1,0.4,0.1,1-0.2,1.4c-2.2,2.1-4,4.6-14,7.5c-1.2,0.3-3.7,3.4-3.8,4.6c-0.2,1.6-0.2,3.4,0.1,6c1,10,6,19.5,11.6,28.8
		c4.7,7.9,8.2,13.9,13.3,19.1c2.4,2.2,4.9,3.8,8.9,2c2.1-1,4.8-2.7,5.5-3.3C320.8,604.1,320.9,603.4,320.9,602.7L320.9,602.7z
		 M184.3,458.2c0.3,4-0.5,5-5.5,3.7c-5.3-1.6-7.8-1.1-11.2-5c-2-2.4-4.6-2.4-6.8-0.1c-1,1.2-1.8,2.5-3.4,2.7
		c-0.3-0.5-0.6-1.3-0.4-1.9c0.5-2.3,2-4.1,4.2-5.2c1.6-0.8,3.5-1.4,5.1-1.8c4.7-1.8,7-4.6,7-10.2c0-3.1,1-6.3,1-9.6
		c0-2.3-0.8-3.1-3.1-2.3c-3.9,1.5-7.5,3-11.4,4.6c-1.4,0.5-2.2,1.4-2.7,2.6c-1.1,2-1.8,4.1-2.7,6.1c-0.9,1.2-1.6,0.6-1.9,0.1
		c-1.8-2.9-4.1-6-6-8.5c-1.7-2-1.7-2.7,0.2-4.2l6.4-5.5c3.1-2.9,4.4-6.8,4.7-11.2v-5.9c-0.1-2.6,0.4-3.3,3-3
		c1.8,0.2,3.7,0.7,5.2,1.5c2.9,1.2,5.7,2.9,8.6,4.4c1.5,1,2.6,2.3,2.7,4.2c0.1,2.3-1.4,3.7-3.4,2.9c-3.1-1.4-6.3-2.5-9.6-3.3
		c-1.6-0.4-3.3,0.5-3.6,2c-0.7,3.8,2.5,4,2.3,5c-0.8,2.7-5.1,3.4-5.7,5.9c-0.5,2.3-0.5,3.7,1.5,3.3c5.4-1.1,10.7-4.4,14.8-6.1
		c3.6-1.5,5.4-1,5.9,3C181.1,437.8,182.9,447.8,184.3,458.2L184.3,458.2z M268.3,421.3c1,0.3,2.3,0.9,3.1,1.6
		c2,4.6,6.2,9.7,11.5,12.4c1.7,0.9,3.4,1.2,4.8,1.4c0.5-2,1.4-5.5,1.4-9.2c0-2.9-0.9-6.1-3.6-8.9c-2.4-2.4-5.2-4.5-8.2-6.1
		c-1.3-0.8-2.9-0.6-4,0.3c-0.1,0.7-0.1,1.7,0.3,2.3c1.3,2.3,4.4,4.3,5.8,6.4c0.5,2.2,0.3,2-1.4,1.4c-3.8-2.2-7.1-5.1-9.8-8.5
		c-1.6-1.8-2.6-1.8-3.7,0.1c-2.8,4.4-4.5,9.5-4.9,14.7c-1,6.5,2.3,12.8,8.2,15.7c2.5,1.1,4.4,0.8,5.6-1.6c1.3-2.4,2.2-4.4,3-7.1
		c0.4-1.4,0.4-1.9-0.6-3.1c-1.3-1.6-2.6-3.1-4.1-4.6c-0.6-0.7-1.3-1.3-2-1.6c-0.4,0.5-0.6,1.1-0.5,1.7c0.1,2.1,0.4,4.3,0.5,6.4
		c0,0.5-0.1,1.4-0.4,1.8c-1.1-0.5-2-1.5-2.3-2.7C265.5,429.1,265.7,424.7,268.3,421.3z M32.2,346.9l4,4.7c1.6,3.1,2.5,5.9,3.3,8.3
		c0.7,2.5,1.7,2.5,3.3,1.4c1.4-1,2.5-2.7,2.3-4.8c-0.1-1.5-0.4-2.9-0.9-4.3c-1.4-5.3-0.4-9.8,4.2-13.2c1.6-1.1,2.7-2.9,2.1-4.8
		c-0.7-2.7-1.3-5.2-2.3-7.6c-0.4-1.1-1.9-1.4-2.9-0.8c-5.2,2.7-11.3,10.6-6.6,17.1c0.2,0.4-0.1,1.6-0.4,2.3
		c-4.3-4.3-12.8-13-15.3-12.8c-0.7,1.2-1.2,3.8-0.7,8.9c0.6,5,1.9,10.1,5.7,17.1c1,1.6,1.8,2.5,3.2,3.6c0.9,0.8,2.7,1.7,4.1,1.7
		c0.5-1.1,0.5-2.9,0.3-4.1c-1.3-4.6-2.5-8.2-4.1-12.5L32.2,346.9z M377.1,366.6c3.6-0.7,6.6-1.7,7.9-2.3c5.9-2.3,9.8-6,11.1-12.4
		c0.4-1.7-0.6-2.7-2.5-3.1l-3.8-1c-3.8-1.1-4.5,0.5-5.9,4.1c-1.1,2.7-2.3,5.9-5.2,8.2c-0.9,0.8-4-1.5-4.8-2
		c5.7-3.4,9.5-8.9,12.3-15.4c0.7-1.2,0-2.5-1.3-2.9c-1.8-0.6-3.8-0.8-5.9-0.6c-9.2,1.6-17,7.5-21.2,15.8c-0.3,0.7,0,2.3,0.5,2.5
		c0.8,0.3,2.9,0.1,3.8-0.2c0.5-0.1,0.8-0.8,1.2-1.4c2.4-4.2,6.4-6.8,11.1-8.9c1.4-0.7,1.8-0.2,1.1,1.4c-0.9,1.2-9.2,7-9.4,7.9
		c-1.1,2.4,0.5,2.7,1.9,2.7l2.5-0.7C371.3,362.5,374,365.4,377.1,366.6L377.1,366.6z M250.8,365.9c-0.1,2-0.9,3.2-2.7,2.5
		c-3.8-1.6-6.1-5.8-10.4-7.2c-1.6-0.5-2.5,0.9-2.7,2.3c-0.7,4.4-1.4,8.3-1.4,9.9c0,6,3.2,9.3,6.4,12.5c1,0.8,1,1.4-0.1,1.8
		l-13.2,7.4c-1.2,0.8-2.7,1-4.1,0c-1.3-1.2-1.7-2.6-1.3-4c1.6-6.6,2.7-13.5,4.4-19.9c2.7-10.2,7.2-13.7,14.6-14.7
		c2.7-0.4,4.6-0.4,6.7-0.4c2.2,0,3.1,0.4,3.4,2.4C250.7,359.9,250.7,361.4,250.8,365.9L250.8,365.9z M260.8,411.2
		c0-5-4-6.4-5.7-10.7c-1.6-4.2-3.1-4.2-6.5-1.2c-3.8,3.6-6.1,6.8-7.5,12c-1.2,4.7-1.1,9.7,0.1,14.3c0.3,1.4,1.2,3.1,2.7,2.6
		c1.2-0.3,2-1.5,2-2.7c0-4.2,0.4-8.3,2.5-11.1c1-1.2,1.4-1.5,1.9-1.8c0.7,1,0.4,2.3,0.4,2.5c-0.6,3.1-1.1,6.4-1.8,9.5
		c-0.4,2.1-0.4,3.3,0.7,5.2c1.2,1.9,2.3,2.1,3.1,0.8C256.6,424.4,260.8,415.4,260.8,411.2z M47.5,425c-0.2-4.2-1.1-8.4-2.7-12.3
		c-1.6-3.9-4.1-6.1-5.7-6.1c-1.5,0-5,4.1-6.1,7.4c-3,8.4-1.4,15.2,3.5,23.3c0.7,1,2,2.9,3.9,1c1.5-1.7,2.7-2.9,4.1-4.8
		C46.3,431.3,47.6,428.1,47.5,425z M231.5,556.8c-0.9-7-6.1-13.9-15-19.8c-1.8-0.8-2,0.5-2,2c0.9,9.8,2,19.6,3.3,28.3
		c0.3,1.9,1.2,2.5,3,1.5c2.7-1.2,5.2-2.5,7.7-4C230.8,563.5,232.2,562.2,231.5,556.8z M311.9,476.9c-1.4-3.4-3.7-4.8-7.1-5.1
		c-3.4-0.4-6.3-0.9-9.9-1.4c-2,0.3-3.4,1.9-4.6,4.6c0.1,0.5,0.3,1.2,0.7,1.4c1.2,0.4,3.3,0.8,3.6,1c0.4,0.3,1.8,1.7,2,2.8
		c-0.3,1-1.5,2-3.1,2.3c-2,0.4-2,2-1.7,4.2c0.3,2,1,3.8,2.7,5.9c1.4-0.8,2-1.2,3.1-2.3c1.1-1,1.6-2.5,1.4-4
		c-0.3-4.4,2.2-7.6,5.3-10.6l0.7,0.4c-0.5,2.5-1.8,4.4-2.1,6.9c-0.7,5.2-2.4,9.6-7.5,13c1.6,2,5.5,0.5,6.7-0.7
		c2.1-2,3.8-4.3,4.6-7.2l0.8-2.6c0.2,0,0.5,0.1,0.7,0.2c1,1.9-0.4,5.8,0.3,8.6c1-0.5,1.9-1.2,2.5-2
		C312.8,487.8,313.8,481.1,311.9,476.9L311.9,476.9z M376.3,371.7c-0.9,0-4.4,0.1-5.5,0.3c-0.8,0.2-1.2,2.1-0.8,2.5
		c1,0.7,1.6,1.2,2.5,1.5c3.2,0.3,4.6,0.3,8.3,1c0.6,0.1,1.4,0.4,1.8,1c-0.3,0.3-0.7,0.8-1.4,0.9c-6.8,0.8-8.9,0.7-13.7-2.5
		c-1.3-0.5-1.8,0.4-1.4,1.6c0.7,2.3,2.6,4.2,6.1,5.7c2.8,1.2,5.5,2.7,8.4,2.7c4.4-0.1,7.5-0.4,11.1-1c1.9-0.3,3.8-1.4,4.1-2.3
		c0.3-1,0-3.1-1.1-4.4l-2.6-2.6c-4.1-4.3-6.8-7-12.8-6.4C378.6,369.5,377.4,371.7,376.3,371.7z M380.5,417.2c0-2.5-0.3-4.4-1-6.6
		c-1.3-4.6-5.3-7.9-10.1-8.3c-2.5-0.1-3.8,0.4-2.7,2.7c0.3,0.8,2.5,3.2,3.4,5.1c1.2,2.3,2.3,4.7,2.3,6.8c0,0.9-0.2,1.9-0.6,2.7
		c-1.5-0.8-2.3-2.7-2.7-3.6c-0.7-2.2-0.8-3.5-1.5-4.7c-0.6-1.1-1.4-1.4-1.7-1.4c-1,0-1.4,0.3-1.4,1.6c-0.9,8.1,3.4,15.9,10.7,19.6
		c1.9,0.7,2.4,0.2,3-1.5C379.5,425.7,380.3,421.5,380.5,417.2L380.5,417.2z M43.4,390.9c-1,3.6-1.2,6-1,8.1c0.1,2.6,1.4,4.8,3.8,5.9
		c7.2,3.1,15,4.3,22.7,3.6c0.3,0,1-0.5,1-0.7c-0.2-1.6-1-1.8-2.5-2.3c-3.2-1.1-11.8-3.4-13-4.8c-0.9-1.2-0.5-2.5,1-2.7
		c1.2-0.1,2.5,0.1,3.8,0.6c2.1,1,4,2.4,6.1,3.6c0.7,0.4,1.5,1.2,2.3,0c0.6-1,1.2-1.9-0.1-2.9l-5.1-4
		C58.1,391.7,51.6,390.1,43.4,390.9L43.4,390.9z M199.6,447.4c-0.3,0.8-1,1.5-1.8,2.4c-0.8-0.8-1.6-1.4-2-2.3
		c-3.5-8.9-6.3-18-8.2-27.3c-0.1-1.8,0.5-2.4,2-2.3c3.9,0.4,7.3,2.2,10.7,4c0.5,0.4,1,1.6,1,2.4C202.1,432,201.1,440.6,199.6,447.4
		L199.6,447.4z M31.4,463.1l-0.5-0.3c0.3-4.6,2.7-11.3,1.8-13c-1.6-0.2-3.2-0.1-4.7,0.5c-1.6,0.7-2.3,2.3-2.7,5.1
		c-0.4,6.1,0.5,12.3,1.8,17.8c0.4,2,1.2,2.3,2.7,0.8c3.9-3.6,7.6-8.1,10.5-11.5c2-2.7,2.4-5.2,1.6-7.7c-0.7-2.1-2.1-2.9-3.7-2.9
		c-1.7,0-2.3,1.3-2.7,2.6C34.6,457.7,33.1,460.1,31.4,463.1L31.4,463.1z M346.8,449.1c3.1,0,5.6,0.6,6.4,0.9c3.7,1.4,5.3,3,6,4.3
		c0.7,1.2,0.7,1.8,0.7,2.5c-2.1,0.6-4.4,0.2-6.1-1.2c-3.3-3.1-8.1-4.4-10.9-3.1c0.2,2.1,2.3,4.8,4,6.1c5.7,4.4,10.8,5.2,16.9,3.8
		c1-0.4,1.4-1.8,1.4-3.1c-0.2-4,0.1-8.2-3.7-11.6c-4.1-3.9-10-3.8-14-2c-0.7,0.3-1.7,0.8-2.2,1.4
		C345.4,447.5,345.9,448.5,346.8,449.1L346.8,449.1z M204.8,340.9c1.2-0.3,0.7,0.3,0.3,1.4c-0.7,3.5-2.7,6.2-5.2,8.7
		c-1.4,1.2-1.6,3.1-0.7,4.1c1.8,1.6,3.8,0.2,5.2-1.1c2.7-3.1,4.4-6.8,6-10.5c1.9-4.6,1.5-10.2-0.7-14.1c-1.2-1.6-2.9-1.8-4.3-0.6
		c-4.9,4.1-7.9,10-8.3,16.4c0,0.9,0.1,2.5,0.7,2.9c3.1-1.4,5.1-4.8,6.8-7L204.8,340.9z M288.1,506.1c0.3-0.3,0.9,0,1.1,0.1
		c0,3.7,0.9,8.1,1.4,9.4c0.5-0.2,1-0.6,1.4-1l1-5c2.3-7,0.6-12.6-2.3-19.1c-0.5-1.2-1.4-1.4-2.6-0.8c-0.9,0.4-1.6,1-0.9,2.3
		c0.7,1,0.6,1.8,0,2.9c-1,1.8-1.6,3.8-2.7,6c-0.4,1.4-0.5,2.5-0.6,4.1l-1,25.3c0.4,1.4,1.2,1.1,1.7,0.3c0.5-1.4,1-2.7,1.2-4.1
		c0.7-4,1.8-4.1,2-8.1C288.2,514.4,288.2,510.3,288.1,506.1L288.1,506.1z M56.7,350.1c-0.1-0.4,0-1.4,0.1-1.6l4.2,0.7
		c2,0.4,3.1,0.1,3.8-1.4c1.2-3,0.5-5.7-2.6-6.4c-4.8-0.9-9.6,0.7-13.7,1.6c-2.7,0.9-3.3,3.7-1.4,5.6c3.1,2.9,6,5.9,9.2,8.5
		c2.6,2.1,5.7,2.7,8.7,2c1.4-0.3,2.5-1.2,2.5-2.5c0-0.9-0.4-1.8-1-2.5c-0.7-0.6-1.5-1-2.4-1.4L56.7,350.1z M52.4,534
		c-0.3,1.4-0.9,2.5-3.1,2.4c-2.1-0.1-4.1-0.4-6.1-0.9c-2.2-0.6-2.8-1.4-2.9-2.3c-0.7-4.1-0.3-9.7,0.7-13.5c0.3-0.7,2.6-2,3.6-2.6
		c2.9,0.3,5.3,0.8,7.4,1.4c0.8,0.5,2.5,2.9,2.6,3.3c0.4,1.3,0.4,2.7,0.4,4.1C54,529.3,52.9,532.2,52.4,534z M280.5,657.3
		c5.5,2,9.7,2.7,11.3,2.3c1.7-0.3,2.7-2,2.5-3.7c-0.1-1.5-0.8-2.7-2.7-3.3c-4.2-0.9-8.5-1.5-12.4-2.9c-2.3-0.7-4.1-0.6-6.1,1
		c-3.1,2.4-6.1,3.6-10,4.4c-0.9,0-1.8,0.4-2.5,0.9c-1.1,1.4-0.8,2.5,0.9,3.4C268.1,660,274.5,658.7,280.5,657.3z M303,670.7
		c3.4,0,5.9-0.7,8.3-2.2c2.8-2.3,6.3-3.8,9.9-4.4c1.5-0.3,3-1.8,3.1-3.1c0-1.7-1.4-1.9-2.5-2.3c-3.3-1-7.2-0.9-10.5-1.7
		c-1.1-0.2-2.7-0.2-3.6,0.5c-7,7.1-8.4,5.5-11.7,8.9c-0.9,1.2-0.9,2.6,1.6,3.2C299.4,670.1,301.9,670.5,303,670.7z M186,403.6
		c0-1.8,3.1-4.5,4.8-4.2c0.3,0.1,0.7,0.3,1,0.7l0.7,3.7c0.2,1.4,0.7,2.7,1.4,2.7c3.6,0.3,7.7-2.2,9.7-5.3c2.1-3.3,3.6-7,5.4-10.6
		c1.6-3.9,4.2-1.5,3.3,0.9c-2.3,6.8-5.1,13.7-7.2,20.3c-0.7,2.5-1,2.6-3.4,1.8l-11.3-4C187.7,408.9,185.9,406.4,186,403.6z
		 M272.5,572.2c1.8,0.9,1.7,0.5,4.2-0.8c1.3-1,2-2.4,2.2-4l-0.7-14.8c0-0.5-0.7-1.2-1-1.2c-2,0-4.5-0.4-6.1,0.5
		c-3.1,1.7-5.8,4.2-8.7,6.4c-1.1,1.1-0.1,2.2,1.6,2c1.4-0.5,2.9-1.2,4.3-2l2.6-1.4c0,0.5-0.1,0.9-0.3,1.2c-2.5,2.7-4.3,6-7.6,7.8
		c-0.9,0.1-0.7,2.3,0.6,2.4c1-0.1,3.1-1.2,3.8-1.8c2-1.6,2.9-2.7,5-4.4c0.7,1,1.2,1.8,0.1,2.7l-5.5,4.9c-0.8,0.8-0.2,1.6,0.8,1.5
		c1.4-0.2,2.7-0.8,3.9-1.5c1.4-0.9,2.5-2.1,3.8-3.4c0.1,0.1,0.8,0.9,0.7,1C275,569,273.9,570.5,272.5,572.2z M97.7,400.4
		c-0.8,8.3-2.9,16.6-6.6,20.4c-3-5.7-5.1-12.4-7.1-18.3c1.6-2,3.7-5.1,4.6-7.5c0.4-1.2,1.1-1.4,2.1-0.5
		C93.2,396.7,95.3,398.5,97.7,400.4z M107.5,518.2c-0.5,2.1-1.8,3.8-3.8,4.7c-1.4,0.7-3.8,1.7-6.4,1.7c-1.2,0-2.1-0.3-2.3-1.4
		c-0.7-3.8-1.6-7.4-2.2-11.1c-0.1-0.9,0.7-2,1.4-2.7c2.4-2.3,5.5-2.9,8.7-3.1c0.7,0,2.9,1,3.3,1.6
		C106.9,511.3,107.2,514.4,107.5,518.2z M77.7,474c-4.4,0.7-8.2,4.6-7.5,6.1c0.1,3.4,0.8,6.7,2.6,9.6c1.2,1.7,2,2.1,3.8,1
		c5.6-3.1,10.1-7.7,13.1-13.4c0.8-1.6-0.9-2.1-2.5-2.9c-2.2-1-4.5-1-5.7-0.4c-1.2,0.6-1.7,1.9-1.9,2.9c-1.4,5-1.6,5.1-3.1,6.8
		C75.5,480.4,76,476.9,77.7,474z M107.2,661.5c0.3-0.5,0.4-1,0.9-1c0.8-0.1,2.7-0.1,2.9,0c3.9,1.1,7.5-1.7,11.1-2.3
		c0.8-0.1,1.7-0.2,2.7-0.1c2.4,0.1,4.8,0.1,7.4-0.5c1.1-0.4,2.5,0.1,3.8,0.7c4.2,1.8,8.2,2.9,12.2,0.5c2.1-1.4,4.2-2.7,6.5-3.9
		c3.8-1.4,4.1,1,4.2,2.5c-0.3,1-1.1,1.7-2,2.1c-13,4.6-24.2,4.7-38.7,2.9C114.5,662.7,110.8,662.4,107.2,661.5z M26,524.9
		c-0.3,1.8,0.3,4.4,1.7,5.9l0.6,0.6l-0.3,1.1c-2.3,0-4.5-0.3-6.7-0.9c-1-0.3,1.7-1.8,1.9-3.4c0.5-3.3,1.4-8.9,1.4-12.9
		c0-0.7-1.7-1.4-1.7-2c0.1-0.5,0.4-1,0.8-1.4c4.8,1.2,5.5,1.1,6.4,3.3c1,2,1.8,5.5,3.3,7.9c0.3-0.1,0.7-0.3,0.9-0.5
		c0.2-2.3,0.1-5.5,0.2-7c0.1-1.2,0.7-1.8,2-1.8c1,0,3.6,0.1,4.6,0.3c0.1,0.2,0.1,0.4,0.1,0.7c0,0.7-0.8,0.9-1,1
		c-2.3,0.8-2.4,1-3.4,7.3l-1.1,7.2c-0.1,0.5-0.3,1.6-0.6,2.4c-0.6,0.1-1.7,0-1.9-0.5c-1.6-3.8-3.6-7.9-5.6-11.4l-0.7-0.1
		C26.2,522.1,26.2,523.5,26,524.9L26,524.9z M176.2,558.5c0.2-1.4,0.2-2.9,0-4.2c-0.8-2.3-1.8-4.6-1.5-6.6c1-3.6,1.8-7.2,1.4-10.9
		c-0.5-4.5-0.4-9.2,0.4-13.7c1.2,0.4,2.2,1.2,2.5,2c0.3,1.4,0.7,2.9,0.7,4.2c0.5,3.9,0.1,7.6-0.1,11.4c-0.6,7.4-1.2,14.2-1,21.4
		c0.1,1.1,0.3,2.5,0.7,3.6c1,2.3,0.5,4.6-1.3,7.1l-1.1-0.5c-0.8-3.1-2.9-7.2-3.8-10.5c-0.1-0.6,0-1.1,0.8-1.2
		C175.3,560.4,176.2,559.6,176.2,558.5L176.2,558.5z M247.2,504.2c-3-0.3-6.1-2.9-5.9-7.7c-1.5,2-3.3,4.1-5,4.8c0.1,1.6,4.2,4,7,5.1
		c1.6,2.1,2.7,3.1,4.8,5.5c1.2-3.1,2.7-5.8,3.2-7.5c0.1-3.8-0.7-7.7-2.4-11.1c-2.3-2.5-5.8-4.6-9.3-6.9c-1.7,1.8,0.5,5.8,4.7,8.2
		c-1,2.6-0.8,6.6,3.3,8.9L247.2,504.2z M43,496.9c2.1-0.1,4.4-0.5,6.9-0.8c1.6-0.4,3.5-0.8,3.6-2.9c0.1-1.8-2-2.9-3.6-3.3
		c-7.2-1.8-14.8-1-21.5,2.1c-1.8,1-3.3,2-4.4,3.1c-1.6,1.8-1.3,2.9-0.1,3.8c1.4,1,3.3,2.1,5.9,2.7c0.3-1.5,0.7-4,1.2-5.5
		c2.3-3.8,8.9-4.5,13.5-4.6c1.1,0.2,1.1,1.6,0.2,1.8c-1.3,1-3.9,0.8-4.6,1.9C40.1,496.6,41.2,497,43,496.9L43,496.9z M57.6,536.5
		c-0.1-0.8,0.9-1.8,1-2.4c0.2-1.1,0.2-2.6,0.2-3.8c0.1-2.9-0.5-7.7-0.5-10.6l1.6-1c0.5-0.2,1,0.1,1.6,0.7c1.4,1.4,4.4,4.8,5.9,6.1
		c0.1,0,0.3-0.3,0.4-0.4v-2.2c0-1.5-0.3-2.6-0.7-4.2c-0.5-1.8-1.8-3.1-0.4-3.3l5.6-0.4c-0.5,1.1-1,1.9-1.2,3.6
		c-0.3,2.3-0.7,4.3-0.8,6.4c0.3,3.3,1,6.6,1.2,9.3c0,0.2-0.4,0.5-0.8,0.7c-0.6-0.2-1.1-0.6-1.6-1c-2.7-2.7-4.6-5.3-8.2-8.6
		c-0.3,0.4-0.5,1-0.5,1.5c0.7,2.1,1.6,4.5,3,6.5c0.9,1.2,1.1,1.6-1.2,2.5C61.1,536.2,59.1,536.7,57.6,536.5L57.6,536.5z
		 M157.5,537.2c3.2-2,4.5-8.6,3.7-11.8c-0.1-0.8-0.5-1.6-1.1-2.3c-1-1-2.2-0.7-2.7,1.1c-0.6,2.5-0.9,5.3-1.2,7.6
		c-2.4-0.4-4.8-0.5-7.2-0.2c-2.5,0.3-7.2,1.8-7.2,4.7C141.7,541.1,152.6,540,157.5,537.2z M176.8,504.1c-0.1,1.4,0.4,2.8,1.4,3.8
		c4.9,5.1,11.7,10.4,16,11.5c3.8,1,7,3.3,9.4,6.4l2.3,3.1c1.6,2,3.8,3.4,6.6,3.8c0.5,0.1,1.1,0,1.6,0c-0.4-1.7-0.4-1.9-1.6-3.1
		c-10.1-9-20.8-16.1-31.3-23.4C180,505.5,178.2,504.3,176.8,504.1z M71.2,620.2v-0.1c-1-4.3-2.2-8.5-3.3-12.6
		c-0.8-1.5-2.3-0.4-2.2,0.2c-1.1,3.1-2.2,6.1-3.1,9.4c-0.3,0.9-0.3,1.9,0,2.9c1.6,4.5,3.1,8.9,4.9,13.5c0.3,0.6,1.1,1,1.6,1.4
		c0.4-0.5,1-1.2,1.2-1.7L71.2,620.2z M89.1,513.1c0.3,0.8,0.7,1.8,0.8,2.8c0.1,0.7,0.1,1.2-0.1,1.6c-0.1,0.2-0.5,0.1-0.9-0.1
		c-2.1-1-4.5-2.3-6.4-1c-0.7,0.5-0.4,1.7,0.5,2.1l6,2.5c2.7,1,3.4,2.3,2.9,5.5c-0.5,3.1-2.7,4.3-5.4,5.1c-1.1,0.3-2.3,0.4-3.8,0.3
		c-0.2,1,0.1,2-0.6,2.5c-0.5,0.3-0.6,0.2-1.1,0.4c-1-2.4-1.7-4.9-2-7.4c0-0.6,0.2-0.7,0.4-0.9c0.9,0.3,1.7,1.5,3.1,2.8
		c1.6,0.5,4.4,1,4.8,0.5c0.8-1,1.2-1.6,1.2-2c0-0.7-1-1.4-1.8-1.7c-2.1-1.2-3.3-1.6-5.5-2.5c-2-0.8-2.4-2.7-2.4-4.4
		c0-1.8,1-3.8,3.9-4.8c0.9-0.3,2.5-0.7,3.4-1c0.3-0.6,0.5-2.7,0.5-3.1c0.5-0.1,1.4-0.2,1.5,0.1L89.1,513.1z M46.4,384.4
		c-4.1,0-6.7-1.1-10.8-0.7c-2.9,0.2-5.8,1.5-8.7,2.6c-1.7,0.8-1.4,1.6,0.1,2.2c1.5,0.7,2.5,1.1,4,1c8.5-0.7,18-1.6,26.4-2.5
		c0.5-0.7,0.9-1.2,1.4-2.3c-3.2-2.1-7.4-1.7-11.3-2.9L46.4,384.4z M143.7,510.9c-0.4,0.2-1,0.7-2,1.8c-0.5,0.5-1.1,0.9-1.7,1.2
		l-1.2-0.7l1.8-4.4c0.7-1.7,1.4-1.9,3-0.8l1.5,1.2c1.2,1,2.9,1.8,4.4,1.2c1.4-0.7,0.7-2.7-0.8-3.5c-2.2-1.4-3.8-1.8-6.5-3.4
		c-1.6-1-2.3-2.4-2.3-4.4c0-1.7,1.2-3.8,3.3-4c0.8-0.2,1.8-0.2,3-0.2c1.4,0,2.4-0.2,3.3-1.4c0.7-0.9,1.4-1.4,1.6-0.5
		c0.5,2.5,0.2,5.1-0.4,6.7c-0.5-0.1-0.8-0.1-1.2-0.3c-1.3-2-3-3-4.4-2.8c-1.4,0.2-2,1.2-1,2.3c1.8,1.9,4.4,2.9,6.6,4.2
		c3.1,1.7,2.9,4.1,2.5,5.8c-0.4,2.2-2.3,3.8-4.6,3.7C147,512.4,145.5,512,143.7,510.9z M137.5,504.6c0.3,5.3-4,7.2-7,7.1
		c-2.8,0-4.4-0.6-5.4-3.4c-0.5-1.6-1-6.6-1.4-8.5c-0.5-0.7-1.5-1-2.9-1.4c-0.7-0.1-0.8-0.7-0.9-1.3c1-0.5,2.9-1,4.2-1.2
		c3-0.5,3-0.3,3.5,2.5c0.4,3.1,0.9,6.4,1.5,9.6c1,3.1,4.3,2.4,4.3-0.2c0-2.5,0.1-5.3,0-7.9c-0.5-0.6-1.4-1.9-2.3-2.8
		c-1.2-1.4-1.2-1.8,0.4-2.4c3.8-1.5,4.1-2.5,4.6,2.6C136.3,499.2,137.5,502.1,137.5,504.6z M141,531.5l9.6-2.3
		c2.5-0.7,4-3.4,3.8-5.8c-0.3-1.8-1.4-2.9-3.3-3.3c-4.2-0.4-8.4,0.2-12.3,1.7C138.4,525.1,139.6,528.7,141,531.5L141,531.5z
		 M53.2,497.5c-1.2,0-2.9,0.3-4.1,0.6c-2.4,0.6-3.6,0.8-6,0.6c-1.4-0.1-3.6-1-4.8-1.4c-1.4,0.1-2.9,1.4-3.4,3.5
		c-0.3,2,1,3.5,3.2,3.9c4.6,1,8.9,1.8,13.1,1.8c1.6,0,1.8-0.2,1.9-1.6C53.3,502.5,53.2,500.3,53.2,497.5z M162.5,399.9
		c-2-0.4-4-1-5.9-1.8c-0.7-0.2-1.2-1.8-1.2-2.7c0.2-2.4-0.4-4.8,0-7.3c0.2-1.4,1-1.8,2.3-1.5c1.8,0.4,3.6,0.8,5.3,1.4
		c2.3,1,5.8,7.4,4.8,9.6C166.7,399.5,164.9,399.8,162.5,399.9L162.5,399.9z M123.1,511.8c-0.5,0.7-1.2,1.4-1.9,1.8
		c-2.3,1.5-6.4,2.4-9.2,4.2c-1.4,1-0.7-2.3-0.8-3.6l-1.4-7.6c-0.5-1.5-1.3-3-2.5-4.1c-0.8-1,1.5-1.4,2.7-1.7l4.4-1.4
		c1.6-0.5,2,0.6,1.6,1c-2.3,1.6-2,2.4-1.8,4.5c0.3,2,0.3,4.3,0.4,6c0.3,0.8,0.8,1.9,1.4,2.7c1.4-0.4,2.9-1.4,2.9-1.8l0.3-4.4
		c1.6-2,1.9-1,2.2-0.1C122.1,508.9,122.5,510,123.1,511.8z M129.8,463.3c-1-2.9-1.8-6-2.6-9.1c-0.2-1.2,0.8-1.9,2-1.7
		c4.1,0.9,8.1,1.8,12.2,2.9c1.4,0.3,1.4,1.4,0.5,2.3c-2.7,2.7-5.5,5.1-9.2,6.7C130.9,465.4,130.9,464.7,129.8,463.3z M306.8,355
		c-0.8-4.1-2.4-7.9-4.7-11.3c-1.8-2.3-4.1-2.5-6.1-0.4c-0.7,0.7-1.3,1.4-1.8,2c-2,2.6-1.8,3.4,1.2,4.9c4.6,1.4,7.3,4.1,10.7,7.5
		L306.8,355z M89.7,620.3c-2.4,1.4-4.5,3.2-6.1,5.5c-1.4,2.5-2.9,4.9-4.2,7.4c-0.5,1.2-1.3,4-1.6,5.8l0.8,0.8c2.2-1.3,4.2-2.7,6-4.4
		c3.5-3.4,4.3-6.6,6.2-13.5l0.3-0.8L89.7,620.3z M390.7,339.5c-1.8-3.8-5.3-8.9-6.7-10.8c-1.8-2.3-2.7-2.5-4.8-0.4
		c-0.7,0.7-1.4,1.4-1.8,2c-2,2.5-3.3,5.7,0.1,6.1c2.9,0.5,6.8,0,8.6,1.3c1.7,1.1,3.2,2.3,4,2.7L390.7,339.5z M44.5,523
		c-0.5,5-0.4,5-0.4,8.5c0,1.9,0.9,1.9,2.6,2c1.6,0.1,2-1.4,2.4-3.2l1-6.9c0.3-2.3,0.4-3.6-1-3.8C46.6,519.3,44.7,520.9,44.5,523z
		 M71.1,430.7c-2.2-0.5-4.4-1.2-6.4-2.3c-3.4-1.8-6.7-5.5-6.1-8.9c0.3-1.6,1.2-2,2.5-1.3c2.6,1.9,4.8,4.8,6.7,6.8
		C69.3,426.6,70.5,428.5,71.1,430.7L71.1,430.7z M96.7,511.8c0.1,1.4,1.2,5.4,1.6,7.7c0.2,1.2,0.5,2.2,2.3,2
		c2.3-0.3,3.1-1.4,2.8-3.2c-0.3-2.1-0.8-4.2-1.2-6.4c-0.4-2-1.3-3.2-3.1-3.1C97.1,508.9,96.5,509.6,96.7,511.8z M198.2,382.9
		c-1.4,2.6-2.7,5.2-4.4,7.4c-1.3,1.8-3.3,3-5.2,4.6c-1.8,0.5-1.8,0.3-1.2-1.4c2.7-4.4,5.2-7.8,8.1-11.5
		C197.5,380.9,198.2,381.8,198.2,382.9L198.2,382.9z M335.2,453.8c0,1.6-0.3,3.1-0.8,4.7l-0.4,0.2c-2.1-5.3-7.2-13.9-6.9-14.8
		c-0.1-0.6,1.2-1,1.8-0.8l2.3,1C332.6,447.2,334,450.2,335.2,453.8z M350.1,340.7c0.3,0.1,1.1,0.3,1.7,0.8c1,0.8,1.2,1.8-0.2,2.3
		c-3.2,1.5-8.6,4.4-12.1,5.7c-0.7,0.3-1.4,0.4-1.2-0.8C339,346.6,347.2,340.7,350.1,340.7z M233.2,489.1c-2.3,0-4.2,1.8-4.2,3.6
		c0.1,2,2.6,4.1,4.8,4.1c2,0,3.5-1.4,3.5-3.4C237.5,490.8,235.8,489.1,233.2,489.1z M53.2,661.4c-0.5,0-1.4,1.5-2.1,1.6
		c-2.7,0.2-3.7,0.5-3.7,1.6c0,1.6,0.8,2.4,2.1,2c4.1-1.2,5.1-1.1,10.4-0.7l1.8-2.2c-0.6-0.5-1.1-1.2-1.8-1.4
		C57.7,661.7,55.5,661.4,53.2,661.4z M293.8,464.8c-0.9,0.5-1.6,1.1-1.4,2.1l0.7,1.6c1.6-0.3,3.3-0.4,5-0.3c2.2,0.7,5.9,1.5,8.2,1.9
		c0.5,0.1,1.2-0.5,1.6-1c0.1-0.1-0.3-0.5-0.5-0.9C304.3,465.2,299,465.1,293.8,464.8L293.8,464.8z M143.3,395.8l-5.6-2.5
		c-0.3-0.2-0.5-1.2-0.2-1.6c1.2-1.8,2.5-3.6,3.8-5.2c0.7-0.7,1.2-0.6,1.6,0.3l2.8,7C146.2,395.1,145.6,395.6,143.3,395.8z
		 M69.8,464.4c1.4-0.3,2,0.5,1.8,1.8c-0.1,0.7-0.3,1-1.4,1.5c-4.2,1.3-8.1,1.2-12.4,0.4c-1.4-0.2-2.3-0.5-2.5-0.8
		c0.4-0.6,0.9-0.9,1.6-1.1L69.8,464.4z M109,354.8c-0.4,0.1-0.9,0.5-1.2,0.3c-3.6-2-8.8-4.8-12.1-6.9c-0.8-1.1-0.3-1.5,0.8-1.4
		c2.7,0.9,7.3,2.3,10,3.3C108.2,350.9,108.7,352.5,109,354.8z M164.7,434.6c0.4,0.6,0.8,1.2-0.3,3.1c-1.8,2.9-2.3,5.8-3.6,9.8
		c-0.3,0.8-0.8,1.7-1.2,2.3c-0.4,0.4-1,0.5-1.5,0.8c-0.1-0.5-0.4-1.1-0.3-1.5l3.7-12C161.9,435.6,163,434.8,164.7,434.6z
		 M298.1,394.3c-5-1.1-9.8-2.8-14.3-5.1c-1.6-1.4-1.3-1.3,0.8-1.4l13.5,3.6C300.5,393.5,300,393.4,298.1,394.3L298.1,394.3z
		 M242.5,479.8c-0.4-1.1-1.1-2-2-2.5c-0.7-0.4-2-0.2-2.7,0.4c-0.7,0.5-1.6,1.2-2.2,1.9c-1,1.4-0.4,2.9,1.2,4c1.4,1,2.9,0.9,3.8-0.4
		C241.4,482.2,242.1,481.4,242.5,479.8z M152.5,413.8c-0.5,1-0.6,2-1.3,2.8c-1.8,2.2-3.9,4.3-5.9,6.4c-2,0.9-2-0.3-1.8-1.3
		c1.8-3.4,4.4-6.3,6.8-9.1c0.3-0.3,1-0.5,1.4-0.3C152,412.6,152.2,413.1,152.5,413.8L152.5,413.8z M75.3,395
		c-0.5,0.3-7.7-10.9-8.6-13.3c0-0.4,1.2-1.2,1.8-1.7c0.5,0.3,1,0.7,1.2,1.1c2.3,4.9,6.4,13.3,6,13.6L75.3,395z M72.3,440l-3.1-1.4
		c-2.3,0.5-4.1,1.5-6.6,1.8c-2.7,0.2-3.8-0.3-4.8-1c0.4-0.8,1.8-1.6,4-2c1.2-0.2,6.6-0.7,11.3-0.3L72.3,440z M350.2,382.7l7.9,5.9
		c0.8,0.5,0.7,1.6,1,2.3l-1.8-0.2c-3.4-1.7-7-3.1-9.2-6.4C346.3,381.5,349.4,381.8,350.2,382.7z M149.6,392.4l-0.9,1.4
		c-0.3-0.4-0.8-0.8-1-1.4c-0.7-1.4-0.7-2.9-0.8-4.4c-0.4-3.4-0.2-5.3,1.8-7.3c0.8-1,1.5-0.4,1.5,0.5
		C150.3,385.5,150.1,388.2,149.6,392.4z M98.8,380c0.8,0.3,2,8.4,2.9,12.6c0.2,1,0.1,2.2,0,3.1c-0.3,1-0.7,1.2-1.5,0.3
		c-1.4-4.3-2-8.7-2.7-12.8C97.2,382,97.2,380.7,98.8,380z M330.4,429.4c3.3,1.8,7.1,5.1,8.7,7c0.4,0.4,0.2,1.5,0,2.3
		c-0.5-0.2-1.2-0.3-1.6-0.6c-2.7-1.7-5.3-3.6-7.8-5.4c-0.3-0.3-0.4-2.3-0.7-2.7C329.4,429.7,329.9,429.5,330.4,429.4z M181.1,359
		c0.5,0.3,0.8,0.7,1.2,1.2c-0.3,0.5-0.7,0.9-1.2,1.2c-2.3,0.9-7.7,0.9-10-0.4c-0.4-0.4-0.8-0.9-1.2-1.4l1.6-0.9
		C174.7,358.1,178.3,358.3,181.1,359L181.1,359z M242.5,372.1c2.2,3.4,3.1,6.7,4.1,10.4c0,0.2-0.1,0.3-0.1,0.8
		c-0.5-0.3-0.8-0.4-1-0.7c-2.6-2.4-4.5-5.6-5.5-9c-0.3-0.8-0.1-1.5,0.9-2.1C241.5,371.6,242,371.8,242.5,372.1z M200,605.9
		c2.6-1.5,3.3-2.7,5.7-4.1c1-0.5,0.8-0.7,0.3-1.6c-0.5-1-1-1-2.4-0.7c-2.5,0.9-3.6,1.5-6.1,2.5c-1.1,0.4-1.5,0.9-0.3,1.7L200,605.9z
		 M120.1,363.7c3.1-2.2,6.6-3.3,10-4.6c0.5-0.1,1.4,0.1,2,0.6l-1.2,1.1c-2.7,1.9-5.5,3.4-8.1,5c-0.8-0.1-2-0.3-2.7-0.5
		C119.9,364.8,119.9,364.2,120.1,363.7z M38.5,430.7c-0.8-3.7-1.8-8.2-1.2-11.5c0.2-0.7,0.7-1.4,1.4-2c0.7,0.6,1.4,1.1,1.4,1.7
		c0.7,3.8-0.4,8.2-0.7,11.7L38.5,430.7z M216.2,348.2c2.4-1.9,6.4-4,9.2-5.4c-2.4,3.9-5.6,7.4-9.4,10
		C215.8,351.5,215.3,349.1,216.2,348.2z M172.5,490.9c0,1.5,0.7,3.1,1.9,4.3c0.7-0.5,1.2-1.6,1.2-2c0.3-2.9,0.5-5.8,0.5-8.8
		c0.3-1.2-1.4-1.5-1.8-0.3C173.7,486.3,172.6,488.6,172.5,490.9z M322.5,609.1l-12.6,4.2C312.8,616.7,321.3,613.9,322.5,609.1z
		 M136.5,379.6c0.2,3.3-0.4,7.5-2.3,10.6c-0.2,0.4-0.7,0.7-1.2,1.1c-0.2-0.6-0.8-1.1-0.7-1.5c0.7-3.4,1.6-7.5,2.4-10.9
		c0.1-0.2,0.7-0.4,1-0.5L136.5,379.6z M313.4,621.1c2.7,0,5.3-0.1,7.4-0.7c1.8-1.2,1.8-3.6,2.4-5.2l-0.7-0.2l-3,2.7
		c-2,0.5-3.9,1-6.1,1.2c-0.4,0.4-0.7,0.7-1,1.2C312.7,620.7,313,621,313.4,621.1L313.4,621.1z M288.1,485.7c0.9-2,1.7-3.8,2.4-5.6
		c0.1-0.4-0.5-1.4-1.2-2.1c-0.5,0.1-1,0.4-1.5,0.7c-1.6,1.8-2.9,3.8-4,6C284.1,485.2,285.4,485.2,288.1,485.7L288.1,485.7z
		 M76.6,432.2l2.7-6.8c0.5-0.1,0.9-0.1,1.2,0.1c0.4,2,0.1,5.3-0.1,6.6c-0.4,1.8-1.1,2.9-2.7,3.8C77.1,434.7,76.8,433.5,76.6,432.2z
		 M230.8,482.4c-1.8,0-3.3,1.1-3.4,2.7c0,1.4,1.5,2.7,3.1,2.7c1.7-0.1,3-1.4,3.1-2.9C233.7,483.3,232.6,482.4,230.8,482.4z
		 M229.1,499.2c0-1.8-1.1-3.1-3.1-3.1c-1.6,0-2.7,1-2.7,2.5c0,1.6,1.7,3.3,3.4,3.1C228.3,501.7,229.1,500.6,229.1,499.2z M222.2,482
		c0,1.5-1,2.4-2.4,2.4c-1.9,0-3.3-1.2-3.3-2.9c0-1.4,1.4-2.7,2.7-2.7C220.7,478.6,222.2,479.9,222.2,482z M223.5,488.8
		c-1.6,0-2.7,1-2.7,2.4c0,1.4,1.5,2.7,3.1,2.7c1.2,0,2.4-1.3,2.4-2.7C226.3,489.9,225,488.8,223.5,488.8z M205.5,610.9
		c-2.1,0-4,1-3.9,2.2c0.1,1.2,1.8,2.7,3.1,2.7c1.4,0,2.1-1.4,2.1-3.3C206.7,611.2,206.8,610.9,205.5,610.9z M75.3,352.5
		c-1-4.1-0.5-7.8,0.5-12C77.5,344.1,77.7,349.8,75.3,352.5z M229,472.1c-1.1,0.7-2,1.8-1.9,2.3c0.1,0.8,1,1.6,1.6,2.4
		c0.8-0.4,1.5-1.4,1.8-2.2C230.7,474.1,229.7,473.2,229,472.1L229,472.1z"/>
	<path id="path4" class="st1" d="M941.3,506v32.1h8.4c12.1,0,17.7-6.5,17.7-16.1c0-7.8-3.8-16-19.8-16L941.3,506z M974.8,579.7
		c-8.8-11.5-17-23.4-24.8-35.7h-8.6v29.6l13.1,1.3v5.2c-6.1-0.2-10.3-0.4-15.5-0.4h-9.3c-5.2,0-10.3,0.2-16.2,0.4v-5.2l13.9-1.3
		v-67.8l-14.1-1.1v-5.4c7.6,0.3,13,0.5,17.3,0.5h19.5c17.1,0,31.9,5.9,31.9,21.4c0,10.8-8,17-18.1,20c7.2,11.7,15.6,22.6,25,32.6
		l8.5,0.9v5.3L974.8,579.7z M782.2,506l-13.6-1.2v-5.3l15.9,0.4h9.3l16.4-0.4v5.2l-14.1,1.3v67.8l14.1,1.1v5.3
		c-6.1-0.2-11.2-0.4-16.4-0.4h-9.3c-5.1,0-10.3,0.2-16.2,0.4v-5.3l13.9-1.1V506z M749.7,506l-26.1,74.6h-10.5L687.2,506l-9.8-1.2
		v-5.3l17.6,0.4l20-0.4v5.2l-12.9,1.3l19.8,59.5l19.5-59.5l-12.8-1.2v-5.3l16.4,0.4l13.8-0.4v5.2L749.7,506z M384.6,573.6v-67.8
		l-14.1-1.1v-5.4c7.6,0.3,13,0.5,16.3,0.5h39.9l1.1-4.5h5.6v22.8h-5.6l-2.2-12.3h-27.2v30.7h20.1l1.5-9.1h5.3v23.9h-5.3l-1.5-9
		h-20.1v24.2c0,5.4,0.3,6.1,0.6,6.4c0.3,0.3,1.4,0.6,10.3,0.6h8c6.5,0,9.6-0.4,11-1.8c1.5-1.5,3.2-5.6,5.4-14.6h5.4l-2.2,22.5H392
		c-7.6,0-15.7,0.2-21.5,0.4v-5.3l14.1-1.1L384.6,573.6z M585.2,559.4c0,13.7-11.2,21.8-25.9,21.8c-7.6,0-14.8-2.4-19.9-5.6l-1.4,6.3
		h-5.4V555h5.4c0.5,3.7,1.4,8.4,2.2,11.8c4.6,4.9,12.1,8.3,18.6,8.3c8.6,0,13.5-5,13.5-12.8c0-18.2-37.9-18.4-37.9-43.2
		c0-13.2,10.8-20.8,24.6-20.8c5.4,0,10.8,1.1,14.9,2.8l1.6-6.1h5.3v23.5h-5.4c-0.5-3.5-1.2-7-2.2-10.4c-3.8-2.5-8.2-3.8-12.6-3.8
		c-7.8,0-13.5,3.6-13.5,11.6c0,17.7,38.2,17.8,38.2,43.2L585.2,559.4z M469.8,573.6v-67.8l-14.1-1.1v-5.4c7.6,0.3,13,0.5,16.4,0.5
		h9.2l16.4-0.4v5.2l-14.1,1.2v61.4c0,3.8,0,5.2,0.8,5.8c0.3,0.4,4.5,0.5,9.5,0.5h4.1c7.4,0,9.7-0.8,10.8-1.8
		c1.5-1.6,3.6-5.8,5.9-17.6h5.4l-1.6,25.5h-42.2c-8.1,0-14.7,0.2-20.8,0.4v-5.2L469.8,573.6z M616.2,573.6v-67.8l-14.1-1.1v-5.4
		c7.6,0.3,13,0.5,17.3,0.5h38.9l1.1-4.5h5.6v22.8h-5.5l-2.2-12.3h-27.2v30.7h20l1.6-9.1h5.2v23.9h-5.2l-1.6-8.9h-20v24.1
		c0,5.4,0.2,6.1,0.5,6.4c0.4,0.3,1.4,0.6,10.3,0.6h9.6c6.5,0,9.6-0.4,10.9-1.8c1.6-1.5,3.4-5.6,5.4-14.6h5.5l-2.3,22.5h-46.5
		c-7.5,0-15.6,0.2-21.4,0.4v-5.3l13.9-1.1L616.2,573.6z M842.2,573.6v-67.8l-14.1-1.1v-5.4c7.6,0.3,13,0.5,17.3,0.5h38.9l1.2-4.5
		h5.5v22.8h-5.4l-2.2-12.3h-27.3v30.7h20.1l1.5-9.1h5.3v23.9h-5.3l-1.5-8.9h-20.1v24.1c0,5.4,0.3,6.1,0.6,6.4
		c0.3,0.3,1.4,0.6,10.3,0.6h8.2c6.5,0,9.4-0.4,10.8-1.8c1.5-1.5,3.2-5.6,5.4-14.6h5.4l-2.2,22.5h-45c-7.6,0-15.7,0.2-21.6,0.4v-5.3
		l14.1-1.1L842.2,573.6z"/>
</g>
</svg>
