<svg id="visual" viewBox="0 0 900 450" width="900" height="450" xmlns="http://www.w3.org/2000/svg" xmlns:xlink="http://www.w3.org/1999/xlink" version="1.1"><rect x="0" y="0" width="900" height="450" fill="#FFFFFF"></rect><path d="M0 127L21.5 129C43 131 86 135 128.8 141.5C171.7 148 214.3 157 257.2 160.5C300 164 343 162 385.8 155.2C428.7 148.3 471.3 136.7 514.2 130.5C557 124.3 600 123.7 642.8 122.3C685.7 121 728.3 119 771.2 128.2C814 137.3 857 157.7 878.5 167.8L900 178L900 0L878.5 0C857 0 814 0 771.2 0C728.3 0 685.7 0 642.8 0C600 0 557 0 514.2 0C471.3 0 428.7 0 385.8 0C343 0 300 0 257.2 0C214.3 0 171.7 0 128.8 0C86 0 43 0 21.5 0L0 0Z" fill="#ff1100"></path><path d="M0 124L21.5 123.3C43 122.7 86 121.3 128.8 122.3C171.7 123.3 214.3 126.7 257.2 129.8C300 133 343 136 385.8 133.3C428.7 130.7 471.3 122.3 514.2 115.2C557 108 600 102 642.8 97.8C685.7 93.7 728.3 91.3 771.2 98.7C814 106 857 123 878.5 131.5L900 140L900 0L878.5 0C857 0 814 0 771.2 0C728.3 0 685.7 0 642.8 0C600 0 557 0 514.2 0C471.3 0 428.7 0 385.8 0C343 0 300 0 257.2 0C214.3 0 171.7 0 128.8 0C86 0 43 0 21.5 0L0 0Z" fill="#ff002f"></path><path d="M0 112L21.5 105.7C43 99.3 86 86.7 128.8 86.8C171.7 87 214.3 100 257.2 106.2C300 112.3 343 111.7 385.8 103.8C428.7 96 471.3 81 514.2 74.3C557 67.7 600 69.3 642.8 69.8C685.7 70.3 728.3 69.7 771.2 68.8C814 68 857 67 878.5 66.5L900 66L900 0L878.5 0C857 0 814 0 771.2 0C728.3 0 685.7 0 642.8 0C600 0 557 0 514.2 0C471.3 0 428.7 0 385.8 0C343 0 300 0 257.2 0C214.3 0 171.7 0 128.8 0C86 0 43 0 21.5 0L0 0Z" fill="#ff004b"></path><path d="M0 55L21.5 54.3C43 53.7 86 52.3 128.8 52.7C171.7 53 214.3 55 257.2 54.2C300 53.3 343 49.7 385.8 52C428.7 54.3 471.3 62.7 514.2 68.8C557 75 600 79 642.8 76.5C685.7 74 728.3 65 771.2 62.2C814 59.3 857 62.7 878.5 64.3L900 66L900 0L878.5 0C857 0 814 0 771.2 0C728.3 0 685.7 0 642.8 0C600 0 557 0 514.2 0C471.3 0 428.7 0 385.8 0C343 0 300 0 257.2 0C214.3 0 171.7 0 128.8 0C86 0 43 0 21.5 0L0 0Z" fill="#ff0b65"></path><path d="M0 35L21.5 34.7C43 34.3 86 33.7 128.8 33.2C171.7 32.7 214.3 32.3 257.2 33.8C300 35.3 343 38.7 385.8 42C428.7 45.3 471.3 48.7 514.2 47.3C557 46 600 40 642.8 38.5C685.7 37 728.3 40 771.2 41.5C814 43 857 43 878.5 43L900 43L900 0L878.5 0C857 0 814 0 771.2 0C728.3 0 685.7 0 642.8 0C600 0 557 0 514.2 0C471.3 0 428.7 0 385.8 0C343 0 300 0 257.2 0C214.3 0 171.7 0 128.8 0C86 0 43 0 21.5 0L0 0Z" fill="#ff217d"></path></svg>