<svg id="visual" viewBox="0 0 900 450" width="900" height="450" xmlns="http://www.w3.org/2000/svg" xmlns:xlink="http://www.w3.org/1999/xlink" version="1.1"><rect x="0" y="0" width="900" height="450" fill="#FFFFFF"></rect><path d="M0 316L21.5 317.7C43 319.3 86 322.7 128.8 336.3C171.7 350 214.3 374 257.2 379.5C300 385 343 372 385.8 358.7C428.7 345.3 471.3 331.7 514.2 333.5C557 335.3 600 352.7 642.8 358C685.7 363.3 728.3 356.7 771.2 350.8C814 345 857 340 878.5 337.5L900 335L900 451L878.5 451C857 451 814 451 771.2 451C728.3 451 685.7 451 642.8 451C600 451 557 451 514.2 451C471.3 451 428.7 451 385.8 451C343 451 300 451 257.2 451C214.3 451 171.7 451 128.8 451C86 451 43 451 21.5 451L0 451Z" fill="#c50b0b" stroke-linecap="round" stroke-linejoin="miter"></path></svg>