<svg id="visual" viewBox="0 0 900 450" width="900" height="450" xmlns="http://www.w3.org/2000/svg" xmlns:xlink="http://www.w3.org/1999/xlink" version="1.1"><path d="M0 112L21.5 113.5C43 115 86 118 128.8 127.2C171.7 136.3 214.3 151.7 257.2 151.2C300 150.7 343 134.3 385.8 129.3C428.7 124.3 471.3 130.7 514.2 132.2C557 133.7 600 130.3 642.8 133.2C685.7 136 728.3 145 771.2 154C814 163 857 172 878.5 176.5L900 181L900 0L878.5 0C857 0 814 0 771.2 0C728.3 0 685.7 0 642.8 0C600 0 557 0 514.2 0C471.3 0 428.7 0 385.8 0C343 0 300 0 257.2 0C214.3 0 171.7 0 128.8 0C86 0 43 0 21.5 0L0 0Z" fill="#ff0066"></path><path d="M0 88L21.5 96.5C43 105 86 122 128.8 132.2C171.7 142.3 214.3 145.7 257.2 135.7C300 125.7 343 102.3 385.8 101.3C428.7 100.3 471.3 121.7 514.2 127.8C557 134 600 125 642.8 123.8C685.7 122.7 728.3 129.3 771.2 126.8C814 124.3 857 112.7 878.5 106.8L900 101L900 0L878.5 0C857 0 814 0 771.2 0C728.3 0 685.7 0 642.8 0C600 0 557 0 514.2 0C471.3 0 428.7 0 385.8 0C343 0 300 0 257.2 0C214.3 0 171.7 0 128.8 0C86 0 43 0 21.5 0L0 0Z" fill="#ec1168"></path><path d="M0 48L21.5 56.5C43 65 86 82 128.8 83C171.7 84 214.3 69 257.2 61.2C300 53.3 343 52.7 385.8 61.3C428.7 70 471.3 88 514.2 96.2C557 104.3 600 102.7 642.8 93.8C685.7 85 728.3 69 771.2 60.2C814 51.3 857 49.7 878.5 48.8L900 48L900 0L878.5 0C857 0 814 0 771.2 0C728.3 0 685.7 0 642.8 0C600 0 557 0 514.2 0C471.3 0 428.7 0 385.8 0C343 0 300 0 257.2 0C214.3 0 171.7 0 128.8 0C86 0 43 0 21.5 0L0 0Z" fill="#d91c69"></path><path d="M0 55L21.5 54.5C43 54 86 53 128.8 53.7C171.7 54.3 214.3 56.7 257.2 59.3C300 62 343 65 385.8 58.8C428.7 52.7 471.3 37.3 514.2 32.3C557 27.3 600 32.7 642.8 38.7C685.7 44.7 728.3 51.3 771.2 53.5C814 55.7 857 53.3 878.5 52.2L900 51L900 0L878.5 0C857 0 814 0 771.2 0C728.3 0 685.7 0 642.8 0C600 0 557 0 514.2 0C471.3 0 428.7 0 385.8 0C343 0 300 0 257.2 0C214.3 0 171.7 0 128.8 0C86 0 43 0 21.5 0L0 0Z" fill="#c62368"></path></svg>